<svg version="1.1" viewBox="0.0 0.0 915.3805774278215 367.994750656168" fill="none" stroke="none" stroke-linecap="square" stroke-miterlimit="10" xmlns:xlink="http://www.w3.org/1999/xlink" xmlns="http://www.w3.org/2000/svg"><clipPath id="p.0"><path d="m0 0l915.38055 0l0 367.99475l-915.38055 0l0 -367.99475z" clip-rule="nonzero"/></clipPath><g clip-path="url(#p.0)"><path fill="#000000" fill-opacity="0.0" d="m0 0l915.38055 0l0 367.99475l-915.38055 0z" fill-rule="evenodd"/><path fill="#f4cccc" d="m46.5713 311.59937l1.7431946 -25.97403l6.0551186 6.929138l209.3325 -183.07555l-6.0551147 -6.9291306l25.963684 1.7424927l-1.7431946 25.974037l-6.0551453 -6.9291306l-209.33249 183.07556l6.0551147 6.929138z" fill-rule="evenodd"/><path fill="#000000" fill-opacity="0.0" d="m14.769029 339.81104l301.92123 -265.29135" fill-rule="evenodd"/><path stroke="#000000" stroke-width="2.0" stroke-linejoin="round" stroke-linecap="butt" stroke-dasharray="8.0,6.0" d="m14.769029 339.81104l301.92123 -265.29135" fill-rule="evenodd"/><path fill="#76a5af" d="m56.75328 256.2852l0 0c0 3.20932 -2.6016846 5.8110046 -5.8110237 5.8110046l0 0c-1.5411797 0 -3.0192337 -0.61221313 -4.1090126 -1.7019958c-1.0897789 -1.0897827 -1.7020111 -2.5678406 -1.7020111 -4.109009l0 0c0 -3.2093506 2.6016846 -5.811035 5.8110237 -5.811035l0 0c3.2093391 0 5.8110237 2.6016846 5.8110237 5.811035z" fill-rule="evenodd"/><path stroke="#000000" stroke-width="1.0" stroke-linejoin="round" stroke-linecap="butt" d="m56.75328 256.2852l0 0c0 3.20932 -2.6016846 5.8110046 -5.8110237 5.8110046l0 0c-1.5411797 0 -3.0192337 -0.61221313 -4.1090126 -1.7019958c-1.0897789 -1.0897827 -1.7020111 -2.5678406 -1.7020111 -4.109009l0 0c0 -3.2093506 2.6016846 -5.811035 5.8110237 -5.811035l0 0c3.2093391 0 5.8110237 2.6016846 5.8110237 5.811035z" fill-rule="evenodd"/><path fill="#76a5af" d="m188.076 151.61417l0 0c0 3.2093506 -2.6016846 5.811035 -5.81102 5.811035l0 0c-1.5411835 0 -3.0192413 -0.6122284 -4.109024 -1.7020111c-1.0897675 -1.0897827 -1.7019958 -2.5678406 -1.7019958 -4.109024l0 0c0 -3.2093353 2.6016846 -5.81102 5.81102 -5.81102l0 0c3.2093353 0 5.81102 2.6016846 5.81102 5.81102z" fill-rule="evenodd"/><path stroke="#000000" stroke-width="1.0" stroke-linejoin="round" stroke-linecap="butt" d="m188.076 151.61417l0 0c0 3.2093506 -2.6016846 5.811035 -5.81102 5.811035l0 0c-1.5411835 0 -3.0192413 -0.6122284 -4.109024 -1.7020111c-1.0897675 -1.0897827 -1.7019958 -2.5678406 -1.7019958 -4.109024l0 0c0 -3.2093353 2.6016846 -5.81102 5.81102 -5.81102l0 0c3.2093353 0 5.81102 2.6016846 5.81102 5.81102z" fill-rule="evenodd"/><path fill="#76a5af" d="m112.87299 156.97375l0 0c0 3.2093353 -2.6016846 5.81102 -5.8110275 5.81102l0 0c-1.5411758 0 -3.0192337 -0.6122284 -4.109009 -1.7020111c-1.0897827 -1.0897675 -1.7020111 -2.5678253 -1.7020111 -4.109009l0 0c0 -3.2093353 2.6016846 -5.81102 5.81102 -5.81102l0 0c3.209343 0 5.8110275 2.6016846 5.8110275 5.81102z" fill-rule="evenodd"/><path stroke="#000000" stroke-width="1.0" stroke-linejoin="round" stroke-linecap="butt" d="m112.87299 156.97375l0 0c0 3.2093353 -2.6016846 5.81102 -5.8110275 5.81102l0 0c-1.5411758 0 -3.0192337 -0.6122284 -4.109009 -1.7020111c-1.0897827 -1.0897675 -1.7020111 -2.5678253 -1.7020111 -4.109009l0 0c0 -3.2093353 2.6016846 -5.81102 5.81102 -5.81102l0 0c3.209343 0 5.8110275 2.6016846 5.8110275 5.81102z" fill-rule="evenodd"/><path fill="#76a5af" d="m208.06824 75.603676l0 0c0 3.2093353 -2.6016846 5.81102 -5.81102 5.81102l0 0c-1.5411835 0 -3.0192413 -0.6122284 -4.109009 -1.7020035c-1.0897827 -1.0897827 -1.7020111 -2.5678406 -1.7020111 -4.1090164l0 0c0 -3.209343 2.6016846 -5.8110275 5.81102 -5.8110275l0 0c3.2093353 0 5.81102 2.6016846 5.81102 5.8110275z" fill-rule="evenodd"/><path stroke="#000000" stroke-width="1.0" stroke-linejoin="round" stroke-linecap="butt" d="m208.06824 75.603676l0 0c0 3.2093353 -2.6016846 5.81102 -5.81102 5.81102l0 0c-1.5411835 0 -3.0192413 -0.6122284 -4.109009 -1.7020035c-1.0897827 -1.0897827 -1.7020111 -2.5678406 -1.7020111 -4.1090164l0 0c0 -3.209343 2.6016846 -5.8110275 5.81102 -5.8110275l0 0c3.2093353 0 5.81102 2.6016846 5.81102 5.8110275z" fill-rule="evenodd"/><path fill="#76a5af" d="m163.05511 276.83295l0 0c0 3.20932 -2.6016846 5.8110046 -5.81102 5.8110046l0 0c-1.5411835 0 -3.0192413 -0.61221313 -4.109009 -1.7019958c-1.0897827 -1.0897827 -1.7020111 -2.5678406 -1.7020111 -4.109009l0 0c0 -3.2093506 2.6016846 -5.811035 5.81102 -5.811035l0 0c3.2093353 0 5.81102 2.6016846 5.81102 5.811035z" fill-rule="evenodd"/><path stroke="#000000" stroke-width="1.0" stroke-linejoin="round" stroke-linecap="butt" d="m163.05511 276.83295l0 0c0 3.20932 -2.6016846 5.8110046 -5.81102 5.8110046l0 0c-1.5411835 0 -3.0192413 -0.61221313 -4.109009 -1.7019958c-1.0897827 -1.0897827 -1.7020111 -2.5678406 -1.7020111 -4.109009l0 0c0 -3.2093506 2.6016846 -5.811035 5.81102 -5.811035l0 0c3.2093353 0 5.81102 2.6016846 5.81102 5.811035z" fill-rule="evenodd"/><path fill="#76a5af" d="m254.43752 199.85301l0 0c0 3.2093506 -2.6016846 5.811035 -5.81102 5.811035l0 0c-1.5411835 0 -3.0192413 -0.61224365 -4.109009 -1.7020111c-1.0897827 -1.0897827 -1.7020111 -2.5678406 -1.7020111 -4.109024l0 0c0 -3.2093353 2.6016846 -5.81102 5.81102 -5.81102l0 0c3.2093353 0 5.81102 2.6016846 5.81102 5.81102z" fill-rule="evenodd"/><path stroke="#000000" stroke-width="1.0" stroke-linejoin="round" stroke-linecap="butt" d="m254.43752 199.85301l0 0c0 3.2093506 -2.6016846 5.811035 -5.81102 5.811035l0 0c-1.5411835 0 -3.0192413 -0.61224365 -4.109009 -1.7020111c-1.0897827 -1.0897827 -1.7020111 -2.5678406 -1.7020111 -4.109024l0 0c0 -3.2093353 2.6016846 -5.81102 5.81102 -5.81102l0 0c3.2093353 0 5.81102 2.6016846 5.81102 5.81102z" fill-rule="evenodd"/><path fill="#f6b26b" d="m257.92377 131.04987l0 0c0 3.2093353 -2.6016846 5.81102 -5.81102 5.81102l0 0c-1.5411835 0 -3.019226 -0.6122284 -4.109009 -1.7019958c-1.0897827 -1.0897827 -1.7020111 -2.5678406 -1.7020111 -4.109024l0 0c0 -3.2093353 2.6016846 -5.81102 5.81102 -5.81102l0 0c3.2093353 0 5.81102 2.6016846 5.81102 5.81102z" fill-rule="evenodd"/><path stroke="#000000" stroke-width="1.0" stroke-linejoin="round" stroke-linecap="butt" d="m257.92377 131.04987l0 0c0 3.2093353 -2.6016846 5.81102 -5.81102 5.81102l0 0c-1.5411835 0 -3.019226 -0.6122284 -4.109009 -1.7019958c-1.0897827 -1.0897827 -1.7020111 -2.5678406 -1.7020111 -4.109024l0 0c0 -3.2093353 2.6016846 -5.81102 5.81102 -5.81102l0 0c3.2093353 0 5.81102 2.6016846 5.81102 5.81102z" fill-rule="evenodd"/><path fill="#f6b26b" d="m220.58267 162.42783l0 0c0 3.2093353 -2.6016846 5.81102 -5.81102 5.81102l0 0c-1.5411835 0 -3.0192413 -0.6122284 -4.109009 -1.7020111c-1.0897827 -1.0897827 -1.7020111 -2.5678406 -1.7020111 -4.109009l0 0c0 -3.2093506 2.6016846 -5.811035 5.81102 -5.811035l0 0c3.2093353 0 5.81102 2.6016846 5.81102 5.811035z" fill-rule="evenodd"/><path stroke="#000000" stroke-width="1.0" stroke-linejoin="round" stroke-linecap="butt" d="m220.58267 162.42783l0 0c0 3.2093353 -2.6016846 5.81102 -5.81102 5.81102l0 0c-1.5411835 0 -3.0192413 -0.6122284 -4.109009 -1.7020111c-1.0897827 -1.0897827 -1.7020111 -2.5678406 -1.7020111 -4.109009l0 0c0 -3.2093506 2.6016846 -5.811035 5.81102 -5.811035l0 0c3.2093353 0 5.81102 2.6016846 5.81102 5.811035z" fill-rule="evenodd"/><path fill="#000000" fill-opacity="0.0" d="m206.36623 79.71269l41.637802 47.212593" fill-rule="evenodd"/><path stroke="#000000" stroke-width="1.0" stroke-linejoin="round" stroke-linecap="butt" stroke-dasharray="1.0,3.0" d="m206.36623 79.71269l41.637802 47.212593" fill-rule="evenodd"/><path fill="#000000" fill-opacity="0.0" d="m186.374 155.72319l11.779526 13.32283" fill-rule="evenodd"/><path stroke="#000000" stroke-width="1.0" stroke-linejoin="round" stroke-linecap="butt" stroke-dasharray="1.0,3.0" d="m186.374 155.72319l11.779526 13.32283" fill-rule="evenodd"/><path fill="#f6b26b" d="m208.06734 173.15657l0 0c0 3.2093353 -2.6016846 5.81102 -5.811035 5.81102l0 0c-1.5411682 0 -3.019226 -0.6122284 -4.109009 -1.7020111c-1.0897827 -1.0897675 -1.7020111 -2.5678253 -1.7020111 -4.109009l0 0c0 -3.2093353 2.6016846 -5.81102 5.81102 -5.81102l0 0c3.2093506 0 5.811035 2.6016846 5.811035 5.81102z" fill-rule="evenodd"/><path stroke="#000000" stroke-width="1.0" stroke-linejoin="round" stroke-linecap="butt" d="m208.06734 173.15657l0 0c0 3.2093353 -2.6016846 5.81102 -5.811035 5.81102l0 0c-1.5411682 0 -3.019226 -0.6122284 -4.109009 -1.7020111c-1.0897827 -1.0897675 -1.7020111 -2.5678253 -1.7020111 -4.109009l0 0c0 -3.2093353 2.6016846 -5.81102 5.81102 -5.81102l0 0c3.2093506 0 5.811035 2.6016846 5.811035 5.81102z" fill-rule="evenodd"/><path fill="#f6b26b" d="m163.0542 214.30879l0 0c0 3.2093506 -2.6016693 5.811035 -5.81102 5.811035l0 0c-1.5411835 0 -3.019226 -0.6122284 -4.109009 -1.7020111c-1.0897827 -1.0897827 -1.7020111 -2.5678406 -1.7020111 -4.109024l0 0c0 -3.2093353 2.6016846 -5.81102 5.81102 -5.81102l0 0c3.2093506 0 5.81102 2.6016846 5.81102 5.81102z" fill-rule="evenodd"/><path stroke="#000000" stroke-width="1.0" stroke-linejoin="round" stroke-linecap="butt" d="m163.0542 214.30879l0 0c0 3.2093506 -2.6016693 5.811035 -5.81102 5.811035l0 0c-1.5411835 0 -3.019226 -0.6122284 -4.109009 -1.7020111c-1.0897827 -1.0897827 -1.7020111 -2.5678406 -1.7020111 -4.109024l0 0c0 -3.2093353 2.6016846 -5.81102 5.81102 -5.81102l0 0c3.2093506 0 5.81102 2.6016846 5.81102 5.81102z" fill-rule="evenodd"/><path fill="#f6b26b" d="m131.70946 241.02968l0 0c0 3.2093353 -2.6016846 5.81102 -5.81102 5.81102l0 0c-1.5411758 0 -3.0192337 -0.6122284 -4.1090164 -1.7020111c-1.0897751 -1.0897827 -1.7020035 -2.5678406 -1.7020035 -4.109009l0 0c0 -3.2093506 2.6016846 -5.811035 5.81102 -5.811035l0 0c3.2093353 0 5.81102 2.6016846 5.81102 5.811035z" fill-rule="evenodd"/><path stroke="#000000" stroke-width="1.0" stroke-linejoin="round" stroke-linecap="butt" d="m131.70946 241.02968l0 0c0 3.2093353 -2.6016846 5.81102 -5.81102 5.81102l0 0c-1.5411758 0 -3.0192337 -0.6122284 -4.1090164 -1.7020111c-1.0897751 -1.0897827 -1.7020035 -2.5678406 -1.7020035 -4.109009l0 0c0 -3.2093506 2.6016846 -5.811035 5.81102 -5.811035l0 0c3.2093353 0 5.81102 2.6016846 5.81102 5.811035z" fill-rule="evenodd"/><path fill="#f6b26b" d="m82.49869 285.31918l0 0c0 3.2093506 -2.6016846 5.811035 -5.81102 5.811035l0 0c-1.5411835 0 -3.0192413 -0.61224365 -4.1090164 -1.7020264c-1.0897827 -1.0897827 -1.7020111 -2.5678406 -1.7020111 -4.109009l0 0c0 -3.2093506 2.6016846 -5.8110046 5.8110275 -5.8110046l0 0c3.2093353 0 5.81102 2.601654 5.81102 5.8110046z" fill-rule="evenodd"/><path stroke="#000000" stroke-width="1.0" stroke-linejoin="round" stroke-linecap="butt" d="m82.49869 285.31918l0 0c0 3.2093506 -2.6016846 5.811035 -5.81102 5.811035l0 0c-1.5411835 0 -3.0192413 -0.61224365 -4.1090164 -1.7020264c-1.0897827 -1.0897827 -1.7020111 -2.5678406 -1.7020111 -4.109009l0 0c0 -3.2093506 2.6016846 -5.8110046 5.8110275 -5.8110046l0 0c3.2093353 0 5.81102 2.601654 5.81102 5.8110046z" fill-rule="evenodd"/><path fill="#000000" fill-opacity="0.0" d="m55.05127 260.3942l17.51181 20.818909" fill-rule="evenodd"/><path stroke="#000000" stroke-width="1.0" stroke-linejoin="round" stroke-linecap="butt" stroke-dasharray="1.0,3.0" d="m55.05127 260.3942l17.51181 20.818909" fill-rule="evenodd"/><path fill="#000000" fill-opacity="0.0" d="m111.17098 161.08276l41.95275 49.10237" fill-rule="evenodd"/><path stroke="#000000" stroke-width="1.0" stroke-linejoin="round" stroke-linecap="butt" stroke-dasharray="1.0,3.0" d="m111.17098 161.08276l41.95275 49.10237" fill-rule="evenodd"/><path fill="#000000" fill-opacity="0.0" d="m130.00745 245.13869l23.118118 27.59056" fill-rule="evenodd"/><path stroke="#000000" stroke-width="1.0" stroke-linejoin="round" stroke-linecap="butt" stroke-dasharray="1.0,3.0" d="m130.00745 245.13869l23.118118 27.59056" fill-rule="evenodd"/><path fill="#000000" fill-opacity="0.0" d="m218.88066 166.53683l25.637802 29.196854" fill-rule="evenodd"/><path stroke="#000000" stroke-width="1.0" stroke-linejoin="round" stroke-linecap="butt" stroke-dasharray="1.0,3.0" d="m218.88066 166.53683l25.637802 29.196854" fill-rule="evenodd"/><path fill="#000000" fill-opacity="0.0" d="m332.9029 342.17453l301.92126 -265.29132" fill-rule="evenodd"/><path stroke="#000000" stroke-width="2.0" stroke-linejoin="round" stroke-linecap="butt" stroke-dasharray="8.0,6.0" d="m332.9029 342.17453l301.92126 -265.29132" fill-rule="evenodd"/><path fill="#76a5af" d="m374.88715 258.64868l0 0c0 3.2093506 -2.6016846 5.811035 -5.811035 5.811035l0 0c-1.5411682 0 -3.019226 -0.61224365 -4.109009 -1.7019958c-1.0897827 -1.0897827 -1.7019958 -2.5678406 -1.7019958 -4.1090393l0 0c0 -3.20932 2.6016846 -5.8110046 5.8110046 -5.8110046l0 0c3.2093506 0 5.811035 2.6016846 5.811035 5.8110046z" fill-rule="evenodd"/><path stroke="#000000" stroke-width="1.0" stroke-linejoin="round" stroke-linecap="butt" d="m374.88715 258.64868l0 0c0 3.2093506 -2.6016846 5.811035 -5.811035 5.811035l0 0c-1.5411682 0 -3.019226 -0.61224365 -4.109009 -1.7019958c-1.0897827 -1.0897827 -1.7019958 -2.5678406 -1.7019958 -4.1090393l0 0c0 -3.20932 2.6016846 -5.8110046 5.8110046 -5.8110046l0 0c3.2093506 0 5.811035 2.6016846 5.811035 5.8110046z" fill-rule="evenodd"/><path fill="#76a5af" d="m506.20987 153.97769l0 0c0 3.2093353 -2.6016846 5.81102 -5.811035 5.81102l0 0c-1.5411682 0 -3.019226 -0.6122284 -4.109009 -1.7020111c-1.0897827 -1.0897675 -1.7019958 -2.5678253 -1.7019958 -4.109009l0 0c0 -3.2093353 2.6016846 -5.81102 5.8110046 -5.81102l0 0c3.2093506 0 5.811035 2.6016846 5.811035 5.81102z" fill-rule="evenodd"/><path stroke="#000000" stroke-width="1.0" stroke-linejoin="round" stroke-linecap="butt" d="m506.20987 153.97769l0 0c0 3.2093353 -2.6016846 5.81102 -5.811035 5.81102l0 0c-1.5411682 0 -3.019226 -0.6122284 -4.109009 -1.7020111c-1.0897827 -1.0897675 -1.7019958 -2.5678253 -1.7019958 -4.109009l0 0c0 -3.2093353 2.6016846 -5.81102 5.8110046 -5.81102l0 0c3.2093506 0 5.811035 2.6016846 5.811035 5.81102z" fill-rule="evenodd"/><path fill="#76a5af" d="m431.00687 159.33727l0 0c0 3.2093506 -2.6016846 5.811035 -5.811035 5.811035l0 0c-1.5411682 0 -3.019226 -0.61224365 -4.109009 -1.7020111c-1.0897827 -1.0897827 -1.7020264 -2.5678406 -1.7020264 -4.109024l0 0c0 -3.2093353 2.6016846 -5.81102 5.811035 -5.81102l0 0c3.2093506 0 5.811035 2.6016846 5.811035 5.81102z" fill-rule="evenodd"/><path stroke="#000000" stroke-width="1.0" stroke-linejoin="round" stroke-linecap="butt" d="m431.00687 159.33727l0 0c0 3.2093506 -2.6016846 5.811035 -5.811035 5.811035l0 0c-1.5411682 0 -3.019226 -0.61224365 -4.109009 -1.7020111c-1.0897827 -1.0897827 -1.7020264 -2.5678406 -1.7020264 -4.109024l0 0c0 -3.2093353 2.6016846 -5.81102 5.811035 -5.81102l0 0c3.2093506 0 5.811035 2.6016846 5.811035 5.81102z" fill-rule="evenodd"/><path fill="#76a5af" d="m526.2021 77.96719l0 0c0 3.2093353 -2.6016846 5.81102 -5.811035 5.81102l0 0c-1.5411377 0 -3.019226 -0.6122284 -4.109009 -1.7020111c-1.0897827 -1.0897751 -1.7019653 -2.567833 -1.7019653 -4.109009l0 0c0 -3.209343 2.6016846 -5.8110275 5.810974 -5.8110275l0 0c3.2093506 0 5.811035 2.6016846 5.811035 5.8110275z" fill-rule="evenodd"/><path stroke="#000000" stroke-width="1.0" stroke-linejoin="round" stroke-linecap="butt" d="m526.2021 77.96719l0 0c0 3.2093353 -2.6016846 5.81102 -5.811035 5.81102l0 0c-1.5411377 0 -3.019226 -0.6122284 -4.109009 -1.7020111c-1.0897827 -1.0897751 -1.7019653 -2.567833 -1.7019653 -4.109009l0 0c0 -3.209343 2.6016846 -5.8110275 5.810974 -5.8110275l0 0c3.2093506 0 5.811035 2.6016846 5.811035 5.8110275z" fill-rule="evenodd"/><path fill="#76a5af" d="m481.18896 279.19644l0 0c0 3.2093506 -2.6016846 5.811035 -5.8110046 5.811035l0 0c-1.5411987 0 -3.0192566 -0.61224365 -4.109009 -1.7020264c-1.0897827 -1.0897522 -1.7020264 -2.56781 -1.7020264 -4.109009l0 0c0 -3.20932 2.6016846 -5.8110046 5.811035 -5.8110046l0 0c3.20932 0 5.8110046 2.6016846 5.8110046 5.8110046z" fill-rule="evenodd"/><path stroke="#000000" stroke-width="1.0" stroke-linejoin="round" stroke-linecap="butt" d="m481.18896 279.19644l0 0c0 3.2093506 -2.6016846 5.811035 -5.8110046 5.811035l0 0c-1.5411987 0 -3.0192566 -0.61224365 -4.109009 -1.7020264c-1.0897827 -1.0897522 -1.7020264 -2.56781 -1.7020264 -4.109009l0 0c0 -3.20932 2.6016846 -5.8110046 5.811035 -5.8110046l0 0c3.20932 0 5.8110046 2.6016846 5.8110046 5.8110046z" fill-rule="evenodd"/><path fill="#76a5af" d="m572.57135 202.21654l0 0c0 3.2093353 -2.6016846 5.81102 -5.810974 5.81102l0 0c-1.5411987 0 -3.019287 -0.6122284 -4.109009 -1.7020111c-1.0897827 -1.0897675 -1.7020264 -2.5678253 -1.7020264 -4.109009l0 0c0 -3.2093353 2.6016846 -5.81102 5.811035 -5.81102l0 0c3.2092896 0 5.810974 2.6016846 5.810974 5.81102z" fill-rule="evenodd"/><path stroke="#000000" stroke-width="1.0" stroke-linejoin="round" stroke-linecap="butt" d="m572.57135 202.21654l0 0c0 3.2093353 -2.6016846 5.81102 -5.810974 5.81102l0 0c-1.5411987 0 -3.019287 -0.6122284 -4.109009 -1.7020111c-1.0897827 -1.0897675 -1.7020264 -2.5678253 -1.7020264 -4.109009l0 0c0 -3.2093353 2.6016846 -5.81102 5.811035 -5.81102l0 0c3.2092896 0 5.810974 2.6016846 5.810974 5.81102z" fill-rule="evenodd"/><path fill="#f6b26b" d="m576.0576 133.41339l0 0c0 3.2093353 -2.6016846 5.81102 -5.811035 5.81102l0 0c-1.5411377 0 -3.019226 -0.6122284 -4.109009 -1.7020111c-1.0897827 -1.0897827 -1.7019653 -2.5678406 -1.7019653 -4.109009l0 0c0 -3.2093506 2.6016846 -5.8110275 5.810974 -5.8110275l0 0c3.2093506 0 5.811035 2.601677 5.811035 5.8110275z" fill-rule="evenodd"/><path stroke="#000000" stroke-width="1.0" stroke-linejoin="round" stroke-linecap="butt" d="m576.0576 133.41339l0 0c0 3.2093353 -2.6016846 5.81102 -5.811035 5.81102l0 0c-1.5411377 0 -3.019226 -0.6122284 -4.109009 -1.7020111c-1.0897827 -1.0897827 -1.7019653 -2.5678406 -1.7019653 -4.109009l0 0c0 -3.2093506 2.6016846 -5.8110275 5.810974 -5.8110275l0 0c3.2093506 0 5.811035 2.601677 5.811035 5.8110275z" fill-rule="evenodd"/><path fill="#f6b26b" d="m538.71655 164.79134l0 0c0 3.2093353 -2.6016846 5.81102 -5.811035 5.81102l0 0c-1.5411987 0 -3.019226 -0.6122284 -4.109009 -1.7019958c-1.0897827 -1.0897827 -1.7020264 -2.5678406 -1.7020264 -4.109024l0 0c0 -3.2093353 2.6016846 -5.81102 5.811035 -5.81102l0 0c3.2093506 0 5.811035 2.6016846 5.811035 5.81102z" fill-rule="evenodd"/><path stroke="#000000" stroke-width="1.0" stroke-linejoin="round" stroke-linecap="butt" d="m538.71655 164.79134l0 0c0 3.2093353 -2.6016846 5.81102 -5.811035 5.81102l0 0c-1.5411987 0 -3.019226 -0.6122284 -4.109009 -1.7019958c-1.0897827 -1.0897827 -1.7020264 -2.5678406 -1.7020264 -4.109024l0 0c0 -3.2093353 2.6016846 -5.81102 5.811035 -5.81102l0 0c3.2093506 0 5.811035 2.6016846 5.811035 5.81102z" fill-rule="evenodd"/><path fill="#000000" fill-opacity="0.0" d="m524.50006 82.0762l41.637817 47.2126" fill-rule="evenodd"/><path stroke="#ff0000" stroke-width="2.0" stroke-linejoin="round" stroke-linecap="butt" stroke-dasharray="8.0,6.0" d="m524.50006 82.0762l41.637817 47.2126" fill-rule="evenodd"/><path fill="#000000" fill-opacity="0.0" d="m504.50784 158.0867l11.7795105 13.322845" fill-rule="evenodd"/><path stroke="#ff0000" stroke-width="2.0" stroke-linejoin="round" stroke-linecap="butt" stroke-dasharray="8.0,6.0" d="m504.50784 158.0867l11.7795105 13.322845" fill-rule="evenodd"/><path fill="#f6b26b" d="m526.2012 175.52008l0 0c0 3.2093506 -2.6016846 5.811035 -5.811035 5.811035l0 0c-1.5411377 0 -3.019226 -0.61224365 -4.109009 -1.7020111c-1.0897827 -1.0897827 -1.7019653 -2.5678406 -1.7019653 -4.109024l0 0c0 -3.2093353 2.6016846 -5.81102 5.810974 -5.81102l0 0c3.2093506 0 5.811035 2.6016846 5.811035 5.81102z" fill-rule="evenodd"/><path stroke="#000000" stroke-width="1.0" stroke-linejoin="round" stroke-linecap="butt" d="m526.2012 175.52008l0 0c0 3.2093506 -2.6016846 5.811035 -5.811035 5.811035l0 0c-1.5411377 0 -3.019226 -0.61224365 -4.109009 -1.7020111c-1.0897827 -1.0897827 -1.7019653 -2.5678406 -1.7019653 -4.109024l0 0c0 -3.2093353 2.6016846 -5.81102 5.810974 -5.81102l0 0c3.2093506 0 5.811035 2.6016846 5.811035 5.81102z" fill-rule="evenodd"/><path fill="#f6b26b" d="m481.18805 216.67232l0 0c0 3.2093353 -2.601654 5.81102 -5.8110046 5.81102l0 0c-1.5411682 0 -3.019226 -0.6122284 -4.109009 -1.7020111c-1.0897827 -1.0897675 -1.7020264 -2.5678253 -1.7020264 -4.109009l0 0c0 -3.2093353 2.6016846 -5.81102 5.811035 -5.81102l0 0c3.2093506 0 5.8110046 2.6016846 5.8110046 5.81102z" fill-rule="evenodd"/><path stroke="#000000" stroke-width="1.0" stroke-linejoin="round" stroke-linecap="butt" d="m481.18805 216.67232l0 0c0 3.2093353 -2.601654 5.81102 -5.8110046 5.81102l0 0c-1.5411682 0 -3.019226 -0.6122284 -4.109009 -1.7020111c-1.0897827 -1.0897675 -1.7020264 -2.5678253 -1.7020264 -4.109009l0 0c0 -3.2093353 2.6016846 -5.81102 5.811035 -5.81102l0 0c3.2093506 0 5.8110046 2.6016846 5.8110046 5.81102z" fill-rule="evenodd"/><path fill="#f6b26b" d="m449.84332 243.39319l0 0c0 3.2093353 -2.6016846 5.81102 -5.811035 5.81102l0 0c-1.5411682 0 -3.019226 -0.6122284 -4.109009 -1.7020111c-1.0897827 -1.0897675 -1.7019958 -2.5678253 -1.7019958 -4.109009l0 0c0 -3.2093353 2.6016846 -5.81102 5.8110046 -5.81102l0 0c3.2093506 0 5.811035 2.6016846 5.811035 5.81102z" fill-rule="evenodd"/><path stroke="#000000" stroke-width="1.0" stroke-linejoin="round" stroke-linecap="butt" d="m449.84332 243.39319l0 0c0 3.2093353 -2.6016846 5.81102 -5.811035 5.81102l0 0c-1.5411682 0 -3.019226 -0.6122284 -4.109009 -1.7020111c-1.0897827 -1.0897675 -1.7019958 -2.5678253 -1.7019958 -4.109009l0 0c0 -3.2093353 2.6016846 -5.81102 5.8110046 -5.81102l0 0c3.2093506 0 5.811035 2.6016846 5.811035 5.81102z" fill-rule="evenodd"/><path fill="#f6b26b" d="m400.63254 287.6827l0 0c0 3.2093506 -2.6016846 5.8110046 -5.8110046 5.8110046l0 0c-1.5411987 0 -3.0192566 -0.61221313 -4.1090393 -1.7019958c-1.0897522 -1.0897827 -1.7019958 -2.5678406 -1.7019958 -4.109009l0 0c0 -3.2093506 2.6016846 -5.811035 5.811035 -5.811035l0 0c3.20932 0 5.8110046 2.6016846 5.8110046 5.811035z" fill-rule="evenodd"/><path stroke="#000000" stroke-width="1.0" stroke-linejoin="round" stroke-linecap="butt" d="m400.63254 287.6827l0 0c0 3.2093506 -2.6016846 5.8110046 -5.8110046 5.8110046l0 0c-1.5411987 0 -3.0192566 -0.61221313 -4.1090393 -1.7019958c-1.0897522 -1.0897827 -1.7019958 -2.5678406 -1.7019958 -4.109009l0 0c0 -3.2093506 2.6016846 -5.811035 5.811035 -5.811035l0 0c3.20932 0 5.8110046 2.6016846 5.8110046 5.811035z" fill-rule="evenodd"/><path fill="#000000" fill-opacity="0.0" d="m373.18512 262.75772l17.51181 20.818878" fill-rule="evenodd"/><path stroke="#ff0000" stroke-width="2.0" stroke-linejoin="round" stroke-linecap="butt" stroke-dasharray="8.0,6.0" d="m373.18512 262.75772l17.51181 20.818878" fill-rule="evenodd"/><path fill="#000000" fill-opacity="0.0" d="m429.30484 163.44629l41.95276 49.102356" fill-rule="evenodd"/><path stroke="#ff0000" stroke-width="2.0" stroke-linejoin="round" stroke-linecap="butt" stroke-dasharray="8.0,6.0" d="m429.30484 163.44629l41.95276 49.102356" fill-rule="evenodd"/><path fill="#000000" fill-opacity="0.0" d="m448.1413 247.5022l23.118134 27.590546" fill-rule="evenodd"/><path stroke="#ff0000" stroke-width="2.0" stroke-linejoin="round" stroke-linecap="butt" stroke-dasharray="8.0,6.0" d="m448.1413 247.5022l23.118134 27.590546" fill-rule="evenodd"/><path fill="#000000" fill-opacity="0.0" d="m537.0145 168.90036l25.637817 29.196838" fill-rule="evenodd"/><path stroke="#ff0000" stroke-width="2.0" stroke-linejoin="round" stroke-linecap="butt" stroke-dasharray="8.0,6.0" d="m537.0145 168.90036l25.637817 29.196838" fill-rule="evenodd"/><path fill="#000000" fill-opacity="0.0" d="m709.80316 329.56598l192.37793 -170.3307" fill-rule="evenodd"/><path stroke="#000000" stroke-width="2.0" stroke-linejoin="round" stroke-linecap="butt" stroke-dasharray="8.0,6.0" d="m709.80316 329.56598l192.37793 -170.3307" fill-rule="evenodd"/><path fill="#76a5af" d="m751.36096 115.548904l0 0c0 4.661804 -3.7791138 8.4409485 -8.440918 8.4409485l0 0c-2.2387085 0 -4.385681 -0.88931274 -5.968689 -2.4722977c-1.5829468 -1.5829849 -2.47229 -3.7299728 -2.47229 -5.968651l0 0c0 -4.661804 3.7791748 -8.440941 8.440979 -8.440941l0 0c4.661804 0 8.440918 3.7791367 8.440918 8.440941z" fill-rule="evenodd"/><path stroke="#000000" stroke-width="1.0" stroke-linejoin="round" stroke-linecap="butt" d="m751.36096 115.548904l0 0c0 4.661804 -3.7791138 8.4409485 -8.440918 8.4409485l0 0c-2.2387085 0 -4.385681 -0.88931274 -5.968689 -2.4722977c-1.5829468 -1.5829849 -2.47229 -3.7299728 -2.47229 -5.968651l0 0c0 -4.661804 3.7791748 -8.440941 8.440979 -8.440941l0 0c4.661804 0 8.440918 3.7791367 8.440918 8.440941z" fill-rule="evenodd"/><path fill="#f6b26b" d="m841.9607 218.92067l0 0c0 4.661804 -3.7791138 8.4409485 -8.440918 8.4409485l0 0c-2.2387085 0 -4.385681 -0.88931274 -5.968628 -2.4723053c-1.5830078 -1.5829773 -2.472351 -3.7299652 -2.472351 -5.968643l0 0c0 -4.661804 3.7791748 -8.4409485 8.440979 -8.4409485l0 0c4.661804 0 8.440918 3.7791443 8.440918 8.4409485z" fill-rule="evenodd"/><path stroke="#000000" stroke-width="1.0" stroke-linejoin="round" stroke-linecap="butt" d="m841.9607 218.92067l0 0c0 4.661804 -3.7791138 8.4409485 -8.440918 8.4409485l0 0c-2.2387085 0 -4.385681 -0.88931274 -5.968628 -2.4723053c-1.5830078 -1.5829773 -2.472351 -3.7299652 -2.472351 -5.968643l0 0c0 -4.661804 3.7791748 -8.4409485 8.440979 -8.4409485l0 0c4.661804 0 8.440918 3.7791443 8.440918 8.4409485z" fill-rule="evenodd"/><path fill="#000000" fill-opacity="0.0" d="m748.8887 121.517555l78.677185 91.43307" fill-rule="evenodd"/><path stroke="#ff0000" stroke-width="3.0" stroke-linejoin="round" stroke-linecap="butt" d="m760.6293 135.16158l55.196045 64.14502" fill-rule="evenodd"/><path fill="#ff0000" stroke="#ff0000" stroke-width="3.0" stroke-linecap="butt" d="m764.3853 131.92955l-12.636047 -7.0876236l5.1239014 13.551704z" fill-rule="evenodd"/><path fill="#ff0000" stroke="#ff0000" stroke-width="3.0" stroke-linecap="butt" d="m812.0693 202.53864l12.635986 7.087616l-5.1239014 -13.551697z" fill-rule="evenodd"/><path fill="#000000" fill-opacity="0.0" d="m772.85834 70.02305l104.72443 122.960625l-35.02362 29.858276l-104.72443 -122.96063z" fill-rule="evenodd"/><path fill="#000000" d="m778.4168 107.5788l-10.293823 3.0471497l-0.8915405 -1.0467911l4.650757 -9.672874l0.90167236 1.0586853l-3.9805908 8.218643l8.762512 -2.6040268l0.8510132 0.9992142zm3.4954224 3.983612q1.2461548 1.4631271 1.1674805 2.8648148q-0.056640625 1.4034424 -1.4954224 2.630005l-4.6254272 3.943245l-0.8206177 -0.96352386l1.1652832 -0.99341583q-0.87646484 0.15174103 -1.7767334 -0.23056793q-0.87823486 -0.38054657 -1.6481934 -1.2845917q-1.0637817 -1.2490158 -1.0974121 -2.49337q-0.03363037 -1.2443619 0.9533081 -2.0857239q0.9512329 -0.81095123 2.1113281 -0.6296158q1.1702881 0.19322205 2.4569092 1.7039337l2.0161133 2.3671799l0.45184326 -0.3852005q0.96313477 -0.8210907 1.0066528 -1.7821274q0.055358887 -0.97117615 -0.8260498 -2.0060806q-0.6078491 -0.7137222 -1.4028931 -1.1652298q-0.7949829 -0.45150757 -1.5944214 -0.57077026l0.3540039 -1.1025467q0.9738159 0.15537262 1.9141846 0.7293472q0.94036865 0.57398224 1.6900635 1.4542389zm-7.1052856 5.441429q0.72943115 0.8564682 1.6385498 1.1286163q0.9090576 0.27214813 1.8995361 -0.05895233l1.2128296 -1.0339661l-1.9958496 -2.3433838q-1.6311035 -1.9151611 -2.9628296 -0.77983093q-0.6539917 0.55753326 -0.6090088 1.3815155q0.0569458 0.8138504 0.81677246 1.7060013zm11.312073 2.5824432q1.0530396 -0.28176117 2.031311 0.095687866q0.9901123 0.36730957 1.8816528 1.4141006l-0.98687744 0.841362l-0.18902588 -0.27007294q-1.0029907 -1.1776428 -2.2956543 -1.2254333q-1.2926636 -0.047790527 -2.600586 1.0672607l-3.8049927 3.243805l-0.861145 -1.0111084l7.467224 -6.365959l0.8206787 0.96352386l-1.4625854 1.2468338zm5.492676 3.485077l0.861145 1.0111008l-7.467224 6.365967l-0.861145 -1.0111084l7.467224 -6.365959zm2.0646362 -0.8772507q-0.26342773 -0.3092804 -0.23175049 -0.70586395q0.031677246 -0.39658356 0.32891846 -0.6500015q0.2854004 -0.24328613 0.6817627 -0.21163177q0.39642334 0.031654358 0.6598511 0.34093475q0.2633667 0.30927277 0.23175049 0.7058563q-0.01977539 0.3864441 -0.30517578 0.6297302q-0.30914307 0.26355743 -0.7055664 0.23190308q-0.3963623 -0.031654358 -0.65979004 -0.34092712zm3.4776611 7.2641754q1.2461548 1.4631348 1.1674805 2.8648224q-0.05670166 1.4034424 -1.4954224 2.630005l-4.6254272 3.9432526l-0.8206177 -0.9635315l1.1652832 -0.9934082q-0.87646484 0.1517334 -1.7767334 -0.23057556q-0.87823486 -0.3805542 -1.6482544 -1.2845917q-1.0637207 -1.2490234 -1.0973511 -2.4933777q-0.03363037 -1.2443542 0.9533081 -2.0857239q0.9512329 -0.8109436 2.1113281 -0.62960815q1.1702881 0.19322205 2.4569092 1.7039337l2.0161133 2.3671722l0.45184326 -0.38519287q0.96313477 -0.8210907 1.0066528 -1.782135q0.055358887 -0.97117615 -0.8260498 -2.006073q-0.6078491 -0.7137146 -1.4028931 -1.1652222q-0.79504395 -0.45150757 -1.5944214 -0.5707855l0.3540039 -1.1025391q0.9738159 0.15536499 1.9141846 0.7293396q0.94036865 0.57398987 1.6900635 1.4542389zm-7.1052856 5.441437q0.72943115 0.8564606 1.6384888 1.1286163q0.90911865 0.2721405 1.8995972 -0.05895996l1.2128296 -1.0339661l-1.9958496 -2.3433838q-1.6311035 -1.9151459 -2.9628296 -0.7798157q-0.6539917 0.55752563 -0.6090088 1.3815002q0.0569458 0.81385803 0.81677246 1.7060089zm15.255432 4.1279144q1.1954956 1.403656 1.0842285 2.9357758q-0.099365234 1.5219879 -1.6689453 2.8600464l-4.328125 3.6898346l-0.861145 -1.0111084l4.233032 -3.6087341q1.1652222 -0.9934082 1.2752075 -2.0932617q0.10998535 -1.0998535 -0.80181885 -2.1704407q-1.0333862 -1.2133331 -2.3445435 -1.3069458q-1.3111572 -0.09361267 -2.5715332 0.980896l-3.9238892 3.345169l-0.861145 -1.0111084l7.467224 -6.3659515l0.8206177 0.96351624l-1.3792725 1.1758881q1.0442505 -0.17160034 2.0308228 0.23977661q1.008667 0.4131317 1.8292847 1.376648zm-0.016479492 15.379227q-0.9421997 -1.1062622 -1.2061768 -2.3801117q-0.2520752 -1.2839661 0.19042969 -2.5235748q0.45440674 -1.2497253 1.5483398 -2.1823273q1.0939331 -0.93258667 2.3874512 -1.1729736q1.2935181 -0.24038696 2.508667 0.22250366q1.2271118 0.45274353 2.1693115 1.559021q0.8307495 0.9754181 1.088501 2.0492096q0.27978516 1.0755463 -0.07067871 2.134018l-1.1495361 -0.31352234q0.23291016 -0.8350525 0.020080566 -1.6391754q-0.1907959 -0.80236816 -0.7682495 -1.4804077q-0.68896484 -0.80888367 -1.6046143 -1.1369934q-0.9038086 -0.33824158 -1.883728 -0.139328q-0.96984863 0.21080017 -1.8259277 0.94065857q-0.868042 0.73999023 -1.2299805 1.6645203q-0.3399048 0.9262848 -0.16143799 1.8828735q0.19036865 0.9464569 0.8793335 1.7553406q0.5774536 0.67803955 1.3270874 1.0039673q0.75982666 0.3378296 1.6208496 0.24029541l0.12695312 1.1852875q-1.1001587 0.17822266 -2.1392212 -0.2705841q-1.0169678 -0.44706726 -1.8274536 -1.3986969zm13.213806 8.430054l-5.3188477 -6.2450714q-1.0943604 1.0766907 -1.1307373 2.5039215q-0.024536133 1.417099 1.0291138 2.6542206q0.5876465 0.68992615 1.3337402 1.0599213q0.7461548 0.37001038 1.5983887 0.3826294l-0.16772461 1.1284943q-1.0200195 0.007247925 -1.9793091 -0.46846008q-0.9373169 -0.4739685 -1.7072754 -1.378006q-0.9725952 -1.1419525 -1.2449341 -2.4497223q-0.262146 -1.2958679 0.18029785 -2.5354767q0.44250488 -1.2395935 1.536438 -2.1721802q1.0939331 -0.9326019 2.3671875 -1.1967773q1.2732544 -0.26417542 2.4580688 0.1630249q1.1967163 0.41706848 2.078125 1.4519653q0.8814087 1.0348969 1.0929565 2.271286q0.22338867 1.2262573 -0.24951172 2.4301758q-0.4508667 1.205658 -1.5566406 2.1483917l-0.31933594 0.2516632zm0.16448975 -6.3615265q-0.92193604 -1.0824738 -2.239685 -1.2320557q-1.3076782 -0.13768005 -2.4945679 0.70988464l4.508423 5.293442q1.0247192 -1.0378876 1.0862427 -2.3633423q0.07165527 -1.3135529 -0.8604126 -2.4079285zm11.880005 6.0927734l0.861145 1.0111084l-10.535034 8.981262l-0.861145 -1.0110931l10.535034 -8.981277zm-4.748657 15.91983q-0.92193604 -1.0824738 -1.1740112 -2.366455q-0.24188232 -1.2720795 0.20056152 -2.511673q0.44250488 -1.2395935 1.536438 -2.1721802q1.0939331 -0.9326019 2.3874512 -1.1729889q1.2935181 -0.24038696 2.4985962 0.2106018q1.2270508 0.4527588 2.1489868 1.5352325q0.92193604 1.0824738 1.1638794 2.3545532q0.26397705 1.2738495 -0.18865967 2.5015411q-0.44250488 1.2396088 -1.536438 2.1721954q-1.0939331 0.93258667 -2.3874512 1.1729736q-1.2833862 0.25228882 -2.510437 -0.20045471q-1.21698 -0.44085693 -2.138916 -1.523346zm0.89178467 -0.7602539q0.678833 0.7969818 1.5724487 1.1233368q0.9055786 0.3162079 1.8753662 0.105407715q0.96984863 -0.21081543 1.8259277 -0.94065857q0.85614014 -0.7298584 1.2180786 -1.6543884q0.36193848 -0.92453 0.18170166 -1.8590851q-0.168396 -0.94470215 -0.84716797 -1.741684q-0.678772 -0.7969971 -1.5843506 -1.113205q-0.89367676 -0.32635498 -1.8735962 -0.1274414q-0.9697876 0.21080017 -1.8259277 0.94065857q-0.8560791 0.7298584 -1.2180176 1.6543884q-0.35180664 0.9364166 -0.18347168 1.8811188q0.18023682 0.93455505 0.8590088 1.7315521zm5.8012695 8.61879q-0.78009033 -0.91593933 -1.2277222 -1.9716339q-0.4475708 -1.0556793 -0.43841553 -1.8642578l1.1816406 -0.22714233q0.024780273 0.80018616 0.3847046 1.7047577q0.381958 0.9063263 1.0404663 1.6795197q0.861145 1.0111084 1.5975952 1.2251282q0.746521 0.22590637 1.3291626 -0.27079773q0.40429688 -0.34466553 0.40905762 -0.8209839q0.014953613 -0.46444702 -0.22076416 -0.9821472q-0.23565674 -0.51771545 -0.69421387 -1.2971191q-0.6035156 -1.0459595 -0.90130615 -1.7570953q-0.29785156 -0.71113586 -0.21600342 -1.4584808q0.103881836 -0.74557495 0.86486816 -1.3943329q0.93933105 -0.80081177 2.1923828 -0.53445435q1.2631836 0.27824402 2.4485474 1.6699982q0.61798096 0.7256317 1.0457764 1.6134338q0.42773438 0.8878021 0.50183105 1.6254272l-1.1834106 0.24917603q-0.13806152 -1.4633331 -1.2321777 -2.7480316q-0.8206787 -0.9635315 -1.5808716 -1.1572723q-0.748291 -0.20387268 -1.3071289 0.2725525q-0.4281006 0.3649292 -0.45666504 0.86154175q-0.016662598 0.48646545 0.2088623 0.99227905q0.23571777 0.5177002 0.7229004 1.3548279q0.5933838 1.0340729 0.87091064 1.721405q0.29956055 0.6891022 0.2076416 1.4245453q-0.06994629 0.73721313 -0.7952881 1.3555603q-0.9750366 0.83122253 -2.2567139 0.5071411q-1.2697754 -0.334198 -2.4956665 -1.7735443zm8.079651 8.426331q-0.49279785 -0.07261658 -0.9901123 -0.36730957q-0.48535156 -0.30482483 -0.88049316 -0.76875305q-0.8915405 -1.0467834 -0.8070679 -2.1043396q0.09454346 -1.0456543 1.1290283 -1.9275513l4.506531 -3.8418884l-1.1448364 -1.3441772l0.8560791 -0.72984314l1.1448364 1.3441772l1.6290283 -1.3887634l0.8510132 0.9992218l-1.6290283 1.3887482l1.9350586 2.2720184l-0.8560791 0.72984314l-1.9350586 -2.2720032l-4.4589844 3.8013306q-0.6658325 0.5676575 -0.72698975 1.1947021q-0.061157227 0.6270294 0.47576904 1.2574921q0.26342773 0.3092804 0.6016846 0.5136719q0.36029053 0.20614624 0.7210083 0.268219l-0.42138672 0.97520447z" fill-rule="nonzero"/><path fill="#000000" fill-opacity="0.0" d="m739.2077 303.565l89.60632 -78.64566" fill-rule="evenodd"/><path stroke="#ff0000" stroke-width="3.0" stroke-linejoin="round" stroke-linecap="butt" d="m752.7361 291.6914l62.5495 -54.898453" fill-rule="evenodd"/><path fill="#ff0000" stroke="#ff0000" stroke-width="3.0" stroke-linecap="butt" d="m749.4674 287.9672l-6.963501 12.704834l13.5008545 -5.2564087z" fill-rule="evenodd"/><path fill="#ff0000" stroke="#ff0000" stroke-width="3.0" stroke-linecap="butt" d="m818.55426 240.51717l6.963501 -12.704803l-13.5008545 5.256378z" fill-rule="evenodd"/><path fill="#000000" fill-opacity="0.0" d="m717.6215 325.3742l133.32288 -121.102356l30.960571 34.078735l-133.32281 121.102356z" fill-rule="evenodd"/><path fill="#000000" d="m758.4267 315.50238l3.371399 10.193909l-1.0178223 0.9244995l-9.813599 -4.3421936l1.0293579 -0.93499756l8.339111 3.7183838l-2.880005 -8.6770935l0.9715576 -0.8825073zm3.869995 -3.620819q1.4226074 -1.2922058 2.8258057 -1.2580566q1.4042969 0.012084961 2.6755981 1.411438l4.087158 4.4987793l-0.9368286 0.85095215l-1.0296631 -1.1333618q0.17938232 0.8713379 -0.17407227 1.7834778q-0.35247803 0.8900757 -1.2314453 1.6885071q-1.2144775 1.1031189 -2.4568481 1.176239q-1.2424316 0.0730896 -2.114502 -0.8868103q-0.8405762 -0.9251709 -0.69610596 -2.0906982q0.15594482 -1.1760254 1.6248169 -2.510254l2.3016357 -2.0906372l-0.399292 -0.43945312q-0.8510132 -0.9367676 -1.8127441 -0.94973755q-0.97229004 -0.024536133 -1.9785156 0.88946533q-0.6939697 0.6303406 -1.1199341 1.4394531q-0.4260254 0.80911255 -0.5198364 1.6120605l-1.1129761 -0.31887817q0.12438965 -0.9784241 0.66815186 -1.9367371q0.5437622 -0.958313 1.3995972 -1.7357483zm5.662903 6.9303284q0.8327637 -0.7564087 1.0759277 -1.6738586q0.24310303 -0.91744995 -0.119140625 -1.8970947l-1.0717163 -1.1796265l-2.2785034 2.0696106q-1.8620605 1.6914368 -0.68530273 2.9867249q0.57788086 0.63604736 1.3998413 0.5649109q0.8114624 -0.082733154 1.678894 -0.8706665zm2.222046 -11.3905945q-0.3149414 -1.0437622 0.031188965 -2.0336914q0.33569336 -1.0014648 1.3534546 -1.9259949l0.8720703 0.9598999l-0.26385498 0.19747925q-1.1450195 1.0400696 -1.1517944 2.3338623q-0.0067749023 1.2937927 1.1489258 2.565918l3.3621826 3.7008057l-0.98309326 0.89297485l-6.5982666 -7.262787l0.9368286 -0.85095215l1.2923584 1.4224854zm3.3084717 -5.6016235l0.98309326 -0.89297485l6.5982666 7.262787l-0.98309326 0.89297485l-6.5982666 -7.262787zm-0.94207764 -2.0361328q-0.3007202 0.27313232 -0.69799805 0.25408936q-0.39733887 -0.019073486 -0.65997314 -0.30819702q-0.25219727 -0.27755737 -0.2331543 -0.6748352q0.019104004 -0.39727783 0.31982422 -0.67041016q0.3007202 -0.27316284 0.69799805 -0.25408936q0.3867798 0.007507324 0.63897705 0.2850647q0.27319336 0.3006897 0.25408936 0.697937q-0.019042969 0.39727783 -0.31976318 0.6704407zm7.1488647 -3.7072449q1.4226074 -1.2922058 2.8258057 -1.2580566q1.4042969 0.012084961 2.6755981 1.411438l4.087158 4.498749l-0.93688965 0.85098267l-1.0296631 -1.1333618q0.17944336 0.8713379 -0.17407227 1.7834778q-0.352417 0.8900757 -1.2314453 1.6885071q-1.2144165 1.1031189 -2.4568481 1.1762085q-1.2424316 0.07312012 -2.114441 -0.8867798q-0.8405762 -0.9252014 -0.696167 -2.0906982q0.15600586 -1.1760254 1.6248779 -2.510254l2.3016357 -2.0906372l-0.399292 -0.43948364q-0.8510132 -0.93673706 -1.8128052 -0.94970703q-0.972229 -0.024536133 -1.9784546 0.88946533q-0.6939697 0.6303406 -1.1199341 1.4394531q-0.4260254 0.80911255 -0.5198364 1.61203l-1.1130371 -0.31884766q0.12438965 -0.9784546 0.66815186 -1.9367676q0.5437622 -0.958313 1.3996582 -1.7357178zm5.662903 6.930298q0.8327637 -0.7564087 1.0758667 -1.6738281q0.24316406 -0.91744995 -0.119140625 -1.8971252l-1.0716553 -1.1796265l-2.2785034 2.069641q-1.8621216 1.6914368 -0.68536377 2.9866943q0.57788086 0.6360779 1.3999023 0.5649109q0.8114624 -0.082733154 1.678894 -0.8706665zm3.6414185 -15.381775q1.3647461 -1.239685 2.899353 -1.1770935q1.5240479 0.05102539 2.9109497 1.5775757l3.824463 4.209656l-0.98309326 0.89297485l-3.7404175 -4.117096q-1.0296631 -1.1333923 -2.1322632 -1.2084045q-1.1025391 -0.075042725 -2.1434937 0.8704834q-1.1796875 1.0715942 -1.2316895 2.385315q-0.052001953 1.3137512 1.0617676 2.5396423l3.4672241 3.8164062l-0.98309326 0.8930054l-6.5982666 -7.262787l0.9368286 -0.85098267l1.218811 1.3415527q-0.20458984 -1.0384827 0.1751709 -2.0378418q0.3809204 -1.0214233 1.317749 -1.872406zm15.369019 -0.47183228q-1.0756226 0.97702026 -2.34021 1.2813416q-1.2750854 0.29275513 -2.527832 -0.11022949q-1.2633057 -0.4145813 -2.2299194 -1.4785461q-0.96661377 -1.0639648 -1.2478638 -2.3494568q-0.28125 -1.285492 0.14282227 -2.5150146q0.41351318 -1.2410583 1.4891357 -2.2181091q0.9484253 -0.8614807 2.0133057 -1.1532593q1.065918 -0.31384277 2.1347656 0.00289917l-0.27685547 1.1591492q-0.8418579 -0.20629883 -1.6386719 0.031982422q-0.79577637 0.21621704 -1.4550171 0.81503296q-0.786499 0.714386 -1.0853271 1.6402283q-0.3093872 0.9142456 -0.07952881 1.8875732q0.24139404 0.9627991 0.9979248 1.7954712q0.7669678 0.8442383 1.7023315 1.1767273q0.93640137 0.3103943 1.8866577 0.10159302q0.9397583 -0.22036743 1.7262573 -0.9347534q0.6592407 -0.59884644 0.96118164 -1.3586121q0.3135376 -0.7702637 0.18878174 -1.6279297l1.1804199 -0.16455078q0.21295166 1.0941467 -0.20257568 2.1471252q-0.41455078 1.0308533 -1.3397827 1.8713379zm8.005249 -13.4774475l-6.0720825 5.515503q1.1105957 1.059845 2.538025 1.0509033q1.4168701 -0.020477295 2.619751 -1.1130981q0.67077637 -0.60931396 1.0169067 -1.3669739q0.34606934 -0.7576294 0.33166504 -1.6100159l1.1329956 0.13180542q0.039611816 1.0195007 -0.4053955 1.9935913q-0.4439087 0.9520569 -1.322876 1.7504883q-1.1103516 1.0085449 -2.4085693 1.3223267q-1.2866211 0.30325317 -2.5394287 -0.099731445q-1.2527466 -0.40301514 -2.2193604 -1.46698q-0.96661377 -1.0639648 -1.2709961 -2.3284607q-0.3043213 -1.2644653 0.08496094 -2.4624634q0.3788452 -1.2095642 1.3850708 -2.1235657q1.0062866 -0.91400146 2.2351074 -1.1647339q1.2183228 -0.26229858 2.4363403 0.1722107q1.2191162 0.41244507 2.196289 1.4880066l0.26159668 0.31118774zm-6.3623047 0.03756714q-1.0524902 0.95602417 -1.1602173 2.2781677q-0.09613037 1.311615 0.7885132 2.4711914l5.1467896 -4.675049q-1.0696411 -0.9915161 -2.3961182 -1.0109253q-1.3149414 -0.029907227 -2.3789673 0.936615zm14.406128 -7.9140015l-0.2828369 3.1276855l1.8806763 2.0701294l-0.98309326 0.89297485l-9.309021 -10.2465515l0.9831543 -0.89297485l6.314575 6.950531l0.7333374 -7.906433l1.2144165 -1.1030884l-0.4109497 5.798218l7.298401 1.2019043l-1.2028809 1.0925903l-6.235779 -0.98498535zm12.214966 -10.525421l-6.0720825 5.5155334q1.1105957 1.0598145 2.538025 1.0508728q1.4168701 -0.020477295 2.619751 -1.1130676q0.67077637 -0.6093445 1.0169067 -1.3670044q0.34606934 -0.7576294 0.33166504 -1.6100159l1.1329956 0.13180542q0.039611816 1.0195007 -0.4053955 1.9936218q-0.4439087 0.95202637 -1.322876 1.7504578q-1.1103516 1.0085754 -2.4085693 1.3223267q-1.2866211 0.30325317 -2.5394287 -0.099731445q-1.2527466 -0.40298462 -2.2193604 -1.46698q-0.96661377 -1.0639648 -1.2709961 -2.3284302q-0.30438232 -1.2644958 0.08496094 -2.462494q0.3788452 -1.209549 1.3850708 -2.1235504q1.0062256 -0.91400146 2.2351074 -1.1647339q1.2182617 -0.26229858 2.4363403 0.1722107q1.2191162 0.41244507 2.196289 1.4879913l0.26159668 0.31118774zm-6.3623047 0.037582397q-1.0524902 0.9560089 -1.1602173 2.2781525q-0.09613037 1.311615 0.7885132 2.4711914l5.1467896 -4.675049q-1.0696411 -0.99150085 -2.3961182 -1.01091q-1.3149414 -0.029922485 -2.3789673 0.936615zm8.499329 -9.2612q1.0177612 -0.9244995 2.2592163 -1.2078094q1.2530518 -0.29382324 2.4942017 0.11968994q1.2412109 0.41349792 2.2183228 1.4890442q0.9876709 1.0870972 1.2804565 2.3620758q0.29278564 1.2749786 -0.10809326 2.48349q-0.40093994 1.2084961 -1.4302979 2.143509q-0.89056396 0.8089447 -1.9333496 1.1017914q-1.041748 0.2707672 -2.133728 -0.024963379l3.6773682 4.0477448l-0.98309326 0.89297485l-9.035828 -9.945862l0.9368286 -0.8509674l1.3028564 1.4340668q-0.20037842 -1.1267548 0.16998291 -2.1597595q0.37139893 -1.055069 1.2851562 -1.885025zm5.8563843 6.585663q0.75183105 -0.6828613 1.0611572 -1.5971222q0.29882812 -0.925827 0.057434082 -1.8886414q-0.22979736 -0.9733124 -0.9863281 -1.8059845q-0.7564697 -0.8326874 -1.6928711 -1.1430817q-0.93536377 -0.3324585 -1.8856201 -0.12365723q-0.9503174 0.20880127 -1.7020874 0.8916626q-0.77490234 0.70388794 -1.0621948 1.6192017q-0.28729248 0.915329 -0.057434082 1.8886414q0.230896 0.95124817 0.9873657 1.7839203q0.75653076 0.8326721 1.6918945 1.1651459q0.9468994 0.32196045 1.8856201 0.12365723q0.9281616 -0.20985413 1.703064 -0.91374207zm9.83905 -8.282806q-0.0569458 0.49501038 -0.33563232 1.0014954q-0.2892456 0.49490356 -0.74035645 0.90463257q-1.0177612 0.9244995 -2.0772705 0.8736725q-1.0479126 -0.06135559 -1.9619751 -1.0675049l-3.9821167 -4.3831177l-1.3069458 1.187149l-0.7564697 -0.8326721l1.3069458 -1.187149l-1.4394531 -1.5843964l0.9715576 -0.88249207l1.4394531 1.5843964l2.2090454 -2.0065918l0.75653076 0.8326721l-2.2091064 2.006607l3.9400635 4.336853q0.5883789 0.6476288 1.216919 0.68885803q0.62854004 0.041229248 1.2415161 -0.5155792q0.3007202 -0.27314758 0.4942627 -0.6178131q0.19458008 -0.36672974 0.24511719 -0.7293091l0.98791504 0.3902893z" fill-rule="nonzero"/><path fill="#000000" fill-opacity="0.0" d="m742.92004 123.98985l-9.322876 175.08662" fill-rule="evenodd"/><path stroke="#000000" stroke-width="2.0" stroke-linejoin="round" stroke-linecap="butt" d="m742.282 135.97287l-8.046753 151.12057" fill-rule="evenodd"/><path fill="#000000" stroke="#000000" stroke-width="2.0" stroke-linecap="butt" d="m745.58075 136.14853l-2.816162 -9.239014l-3.781433 8.887711z" fill-rule="evenodd"/><path fill="#000000" stroke="#000000" stroke-width="2.0" stroke-linecap="butt" d="m730.93646 286.9178l2.8162231 9.239014l3.781372 -8.887695z" fill-rule="evenodd"/><path fill="#d9d9d9" d="m742.02673 307.52963l0 0c0 4.661804 -3.7791138 8.4409485 -8.440918 8.4409485l0 0c-2.2387085 0 -4.385681 -0.88931274 -5.968689 -2.4723206c-1.5829468 -1.5829773 -2.47229 -3.72995 -2.47229 -5.968628l0 0c0 -4.661804 3.7791748 -8.4409485 8.440979 -8.4409485l0 0c4.661804 0 8.440918 3.7791443 8.440918 8.4409485z" fill-rule="evenodd"/><path stroke="#000000" stroke-width="1.0" stroke-linejoin="round" stroke-linecap="butt" d="m742.02673 307.52963l0 0c0 4.661804 -3.7791138 8.4409485 -8.440918 8.4409485l0 0c-2.2387085 0 -4.385681 -0.88931274 -5.968689 -2.4723206c-1.5829468 -1.5829773 -2.47229 -3.72995 -2.47229 -5.968628l0 0c0 -4.661804 3.7791748 -8.4409485 8.440979 -8.4409485l0 0c4.661804 0 8.440918 3.7791443 8.440918 8.4409485z" fill-rule="evenodd"/><path fill="#000000" fill-opacity="0.0" d="m687.8876 299.18164l7.8740234 -179.9685l46.015747 1.9527512l-7.8740234 179.9685z" fill-rule="evenodd"/><path fill="#000000" d="m718.6887 266.76642q0.31140137 0.3885498 0.47485352 0.9428711q0.14782715 0.5536194 0.121154785 1.1624146q-0.060058594 1.3736877 -0.8421631 2.0911865q-0.7814331 0.7018738 -2.1395874 0.6442261l-5.916565 -0.25106812l-0.07720947 1.763916l-1.1239624 -0.047698975l0.07714844 -1.763916l-2.1386719 -0.09075928l0.057373047 -1.3112488l2.1386719 0.09075928l0.13049316 -2.9815369l1.1239624 0.047698975l-0.13043213 2.9815369l5.854126 0.24841309q0.87420654 0.037109375 1.3460083 -0.38076782q0.4718628 -0.4178772 0.50805664 -1.2452087q0.01776123 -0.40585327 -0.09075928 -0.7857971q-0.123413086 -0.39620972 -0.34527588 -0.6871338l0.9727783 -0.42788696zm0.9674072 -6.382904q-0.06213379 1.4205322 -0.7520752 2.532898q-0.689209 1.0967712 -1.8574829 1.7040405q-1.1682739 0.60723877 -2.6044922 0.54629517q-1.4362183 -0.060943604 -2.5471191 -0.7649231q-1.1109009 -0.7039795 -1.6862183 -1.8544006q-0.5901489 -1.1667175 -0.52801514 -2.5872192q0.06213379 -1.4205322 0.7513428 -2.517273q0.6743164 -1.1130371 1.841919 -1.7046967q1.1682739 -0.6072693 2.6044922 -0.5463104q1.4362183 0.060943604 2.5471191 0.7649231q1.1116333 0.688385 1.7017822 1.855072q0.59088135 1.1510925 0.52874756 2.5715942zm-1.1708374 -0.049682617q0.045776367 -1.0458679 -0.38635254 -1.8930664q-0.4477539 -0.8478699 -1.3014526 -1.3532715q-0.85375977 -0.5054016 -1.9777222 -0.5531006q-1.1240234 -0.047698975 -2.0186768 0.3834839q-0.89471436 0.43121338 -1.399231 1.238678q-0.5201416 0.8067932 -0.56591797 1.8526611q-0.045776367 1.0458679 0.40197754 1.8937378q0.4321289 0.847229 1.2851562 1.3682251q0.85375977 0.5054016 1.9777222 0.5531006q1.1240234 0.047698975 2.0186768 -0.3834839q0.89538574 -0.44683838 1.4155273 -1.2536316q0.50457764 -0.8074646 0.55029297 -1.8533325zm1.0457764 -12.820892q0.3114624 0.38856506 0.47491455 0.94285583q0.14776611 0.5536499 0.121154785 1.1624451q-0.06011963 1.3736725 -0.8422241 2.091156q-0.7814331 0.7018738 -2.1395874 0.64424133l-5.916565 -0.25106812l-0.07714844 1.7639313l-1.1239624 -0.047698975l0.07714844 -1.7639313l-2.1386719 -0.09075928l0.05731201 -1.3112488l2.138733 0.09075928l0.13043213 -2.9815216l1.1240234 0.047698975l-0.13049316 2.9815216l5.854126 0.24842834q0.87420654 0.037094116 1.3460693 -0.38076782q0.4718628 -0.4178772 0.50805664 -1.2452087q0.01776123 -0.40586853 -0.09075928 -0.7857971q-0.123413086 -0.39622498 -0.34527588 -0.6871338l0.9727173 -0.42790222zm-9.033203 -6.2286377q0.083984375 -1.920044 1.0962524 -2.893631q0.99731445 -0.9898529 2.8862915 -0.9096832l6.072632 0.2577057l-0.05529785 1.2644043l-1.5299072 -0.06491089q0.7451782 0.4851532 1.1439819 1.3778534q0.38397217 0.8764496 0.33203125 2.0628052q-0.07171631 1.6390686 -0.8945923 2.573761q-0.822876 0.93470764 -2.1185913 0.87971497q-1.2489014 -0.052993774 -1.9749146 -0.975235q-0.72528076 -0.9378357 -0.6385498 -2.9203186l0.1359253 -3.1063995l-0.5932617 -0.025177002q-1.2644653 -0.05366516 -1.9508667 0.6209717q-0.70202637 0.67396545 -0.7614136 2.0320435q-0.04095459 0.93659973 0.23370361 1.8083954q0.27459717 0.8718109 0.77874756 1.503128l-1.0101318 0.5670471q-0.60723877 -0.7764435 -0.9049072 -1.8368835q-0.2977295 -1.0604553 -0.24713135 -2.2155914zm8.908936 0.847229q0.049194336 -1.1239166 -0.43115234 -1.9418945q-0.48034668 -0.8179779 -1.4311523 -1.2492981l-1.5922852 -0.06758118l-0.13452148 3.07518q-0.10998535 2.5132294 1.6384277 2.5874329q0.8586426 0.03642273 1.3868408 -0.59799194q0.5126343 -0.63508606 0.5638428 -1.8058472zm-12.527649 -8.577301l0.058044434 -1.3268433l13.831299 0.5869446l-0.058044434 1.3268585l-13.831299 -0.58695984zm4.821228 -17.9682l9.613159 4.77124l-0.06011963 1.3736877l-9.99353 3.9235687l0.060791016 -1.3892975l8.512329 -3.3139343l-8.190002 -4.054016l0.057373047 -1.3112488zm0.15356445 -5.2974396q0.08404541 -1.920044 1.0963135 -2.8936157q0.99731445 -0.9898529 2.8862305 -0.9096985l6.072693 0.2577057l-0.05529785 1.2644196l-1.5299072 -0.06492615q0.7451172 0.4851532 1.1439819 1.3778687q0.38397217 0.8764343 0.33203125 2.0628052q-0.07171631 1.6390533 -0.8945923 2.5737457q-0.822876 0.93470764 -2.1185913 0.87971497q-1.2489014 -0.052993774 -1.9749146 -0.9752197q-0.72528076 -0.93785095 -0.6385498 -2.9203339l0.13586426 -3.1063995l-0.5932007 -0.025177002q-1.2644653 -0.05366516 -1.9508667 0.6209717q-0.70202637 0.67396545 -0.7614136 2.0320435q-0.041015625 0.93659973 0.23364258 1.8084106q0.2746582 0.87179565 0.7788086 1.5031128l-1.0101318 0.5670624q-0.60723877 -0.7764435 -0.9049072 -1.8368988q-0.2977295 -1.0604553 -0.24719238 -2.2155914zm8.908997 0.84724426q0.049194336 -1.1239319 -0.43115234 -1.9419098q-0.48034668 -0.8179779 -1.4311523 -1.2492981l-1.5922852 -0.06756592l-0.13458252 3.07518q-0.10992432 2.513214 1.6384888 2.5874176q0.85858154 0.03643799 1.3868408 -0.59799194q0.5126343 -0.63508606 0.5638428 -1.8058319zm-6.524597 -9.58931q-0.9630127 -0.5100403 -1.4222412 -1.45224q-0.47485352 -0.94285583 -0.4147339 -2.3165436l1.2956543 0.054992676l-0.045532227 0.32647705q-0.06762695 1.5454102 0.8463745 2.4599762q0.9140625 0.9145813 2.6312866 0.987442l4.9954834 0.21200562l-0.058044434 1.3268433l-9.803711 -0.41603088l0.055358887 -1.2644196l1.920105 0.08149719zm-1.6484375 -6.2910767l0.058044434 -1.3268585l9.803711 0.41603088l-0.05810547 1.3268585l-9.80365 -0.41603088zm-2.109314 -0.7619934q-0.01776123 0.40585327 -0.3110962 0.6749115q-0.29327393 0.26905823 -0.6835327 0.25250244q-0.37469482 -0.015899658 -0.6433716 -0.30880737q-0.2687378 -0.2929077 -0.25097656 -0.69877625q0.01776123 -0.40585327 0.3110962 -0.6749115q0.27764893 -0.26971436 0.65234375 -0.2538147q0.4058838 0.017211914 0.67456055 0.31011963q0.26867676 0.2929077 0.25097656 0.69877625zm2.400879 -7.6892853q0.083984375 -1.9200287 1.0962524 -2.8936157q0.9973755 -0.9898529 2.8862915 -0.9096985l6.072632 0.2577057l-0.05529785 1.2644196l-1.5298462 -0.06492615q0.7451172 0.4851532 1.1439819 1.3778687q0.38391113 0.8764343 0.33203125 2.0628052q-0.07171631 1.6390533 -0.8946533 2.573761q-0.822876 0.9346924 -2.1185913 0.87971497q-1.2488403 -0.052993774 -1.9748535 -0.975235q-0.7253418 -0.93785095 -0.63861084 -2.9203186l0.1359253 -3.1064148l-0.5932007 -0.025161743q-1.2645264 -0.05366516 -1.9509277 0.6209564q-0.70196533 0.67396545 -0.7614136 2.0320435q-0.04095459 0.936615 0.23370361 1.8084106q0.2746582 0.8718109 0.7788086 1.5031128l-1.0101318 0.5670624q-0.6072998 -0.7764435 -0.90496826 -1.8368988q-0.29766846 -1.0604401 -0.24713135 -2.2155914zm8.908997 0.84724426q0.0491333 -1.1239319 -0.43115234 -1.9418945q-0.48034668 -0.8179779 -1.4311523 -1.2493134l-1.5923462 -0.06756592l-0.13452148 3.07518q-0.10998535 2.5132294 1.6384888 2.5874176q0.85858154 0.03643799 1.3867798 -0.5979767q0.5126343 -0.63508606 0.5639038 -1.8058472zm-8.359558 -13.404907q0.080566406 -1.8419952 1.2055054 -2.8889923q1.109375 -1.0476532 3.170044 -0.9602051l5.682373 0.24113464l-0.058044434 1.3268585l-5.557495 -0.23583984q-1.5299072 -0.06492615 -2.359497 0.6661835q-0.8296509 0.7311096 -0.8911133 2.1360168q-0.06964111 1.5922241 0.8267212 2.5529633q0.8963623 0.9607544 2.5510864 1.0309753l5.1516113 0.21861267l-0.058044434 1.3268585l-9.80365 -0.41603088l0.05529785 -1.2644196l1.810852 0.07684326q-0.88153076 -0.58477783 -1.3237915 -1.5575256q-0.45721436 -0.98902893 -0.40185547 -2.2534332zm10.48645 -11.258301q-0.06347656 1.4517365 -0.73779297 2.5647736q-0.6898804 1.112381 -1.8581543 1.719635q-1.1838989 0.6065979 -2.6201172 0.5456543q-1.4362183 -0.060943604 -2.5471191 -0.7649231q-1.1109619 -0.70399475 -1.6855469 -1.8700256q-0.5901489 -1.1667023 -0.52667236 -2.6184387q0.056030273 -1.280014 0.5986328 -2.2422485q0.5276489 -0.9785156 1.505188 -1.5156708l0.62823486 1.0119171q-0.73931885 0.45344543 -1.1311035 1.1874847q-0.40679932 0.71777344 -0.44573975 1.607544q-0.046447754 1.0614929 0.40063477 1.9249725q0.43145752 0.8628082 1.2844849 1.3838196q0.85375977 0.5054016 1.9777222 0.5531006q1.1395874 0.04837036 2.0343018 -0.38284302q0.87976074 -0.447464 1.4005737 -1.2698822q0.505249 -0.8230591 0.5516968 -1.884552q0.03894043 -0.8897705 -0.2880249 -1.6386871q-0.32629395 -0.7645111 -1.0231934 -1.2789001l0.71429443 -0.9549408q0.92700195 0.61798096 1.3821411 1.6538239q0.44024658 1.0195923 0.38555908 2.2683868zm-3.9344482 -15.168259l-0.35858154 8.195282q1.534668 -0.04434204 2.5333862 -1.0654144q0.98309326 -1.0217438 1.0540771 -2.6451874q0.039611816 -0.90538025 -0.2546997 -1.6841888q-0.29437256 -0.7788086 -0.9098511 -1.3679352l0.8913574 -0.71284485q0.7518921 0.6887512 1.1303711 1.6900635q0.3635254 0.98506165 0.3116455 2.1714172q-0.06561279 1.4985657 -0.75683594 2.6421661q-0.6906128 1.1279755 -1.8588867 1.7352448q-1.1682739 0.607254 -2.6044922 0.5463104q-1.4362183 -0.060943604 -2.548523 -0.7337036q-1.1122437 -0.67277527 -1.6889038 -1.7919769q-0.5922241 -1.1198578 -0.5328369 -2.4779358q0.059448242 -1.358078 0.74664307 -2.40802q0.6715088 -1.0505829 1.8377686 -1.611023q1.1513062 -0.57670593 2.6031494 -0.51509094l0.4052124 0.032836914zm-4.453125 4.549652q-0.062194824 1.420517 0.8009033 2.426773q0.86376953 0.9906311 2.3101196 1.177124l0.30395508 -6.9464874q-1.4572754 0.0632782 -2.4050903 0.9926758q-0.9470825 0.91378784 -1.0098877 2.3499146z" fill-rule="nonzero"/><path fill="#000000" fill-opacity="0.0" d="m48.267715 5.1706038l217.95274 0l0 47.212597l-217.95274 0z" fill-rule="evenodd"/><path fill="#000000" d="m76.67466 22.634401l0 13.062502l-1.328125 0l0 -10.453127l-5.125 8.796877l-0.65625 0l-5.125 -8.734377l0 10.390627l-1.328125 0l0 -13.062502l1.140625 0l5.671875 9.687502l5.609375 -9.687502l1.140625 0zm7.4104767 3.171875q1.921875 0 2.9375 0.96875q1.03125 0.953125 1.03125 2.84375l0 6.078127l-1.265625 0l0 -1.53125q-0.453125 0.765625 -1.328125 1.203125q-0.859375 0.421875 -2.046875 0.421875q-1.640625 0 -2.609375 -0.78125q-0.96875 -0.78125 -0.96875 -2.078125q0 -1.2500019 0.890625 -2.015627q0.90625 -0.765625 2.890625 -0.765625l3.109375 0l0 -0.59375q0 -1.265625 -0.703125 -1.921875q-0.703125 -0.671875 -2.0625 -0.671875q-0.9375 0 -1.796875 0.3125q-0.859375 0.3125 -1.46875 0.84375l-0.609375 -0.984375q0.75 -0.640625 1.796875 -0.984375q1.046875 -0.34375 2.203125 -0.34375zm-0.46875 8.937502q1.125 0 1.921875 -0.515625q0.796875 -0.515625 1.1875 -1.484375l0 -1.5937519l-3.078125 0q-2.515625 0 -2.515625 1.7500019q0 0.859375 0.65625 1.359375q0.65625 0.484375 1.828125 0.484375zm14.288437 0.953125l-3.109375 -4.109377l-3.140625 4.109377l-1.484375 0l3.875 -5.031252l-3.6875 -4.78125l1.484375 0l2.953125 3.84375l2.9375 -3.84375l1.46875 0l-3.703125 4.78125l3.921875 5.031252l-1.515625 0zm3.7124329 -9.812502l1.328125 0l0 9.812502l-1.328125 0l0 -9.812502zm0.671875 -2.140625q-0.40625 0 -0.6875 -0.28125q-0.28125 -0.28125 -0.28125 -0.671875q0 -0.375 0.28125 -0.65625q0.28125 -0.28125 0.6875 -0.28125q0.40625 0 0.6875 0.28125q0.28125 0.265625 0.28125 0.640625q0 0.40625 -0.28125 0.6875q-0.28125 0.28125 -0.6875 0.28125zm16.58104 2.0625q1.859375 0 2.90625 1.0625q1.0625 1.0625 1.0625 3.140625l0 5.687502l-1.328125 0l0 -5.562502q0 -1.53125 -0.75 -2.328125q-0.734375 -0.796875 -2.0625 -0.796875q-1.53125 0 -2.421875 0.9375q-0.875 0.9375 -0.875 2.59375l0 5.156252l-1.3125 0l0 -5.562502q0 -1.53125 -0.75 -2.328125q-0.734375 -0.796875 -2.09375 -0.796875q-1.515625 0 -2.40625 0.9375q-0.875 0.9375 -0.875 2.59375l0 5.156252l-1.328125 0l0 -9.812502l1.265625 0l0 1.796875q0.53125 -0.90625 1.453125 -1.390625q0.9375 -0.484375 2.15625 -0.484375q1.234375 0 2.125 0.53125q0.90625 0.515625 1.359375 1.546875q0.546875 -0.96875 1.5625 -1.515625q1.015625 -0.5625 2.3125 -0.5625zm7.559906 0.078125l1.328125 0l0 9.812502l-1.328125 0l0 -9.812502zm0.671875 -2.140625q-0.40625 0 -0.6875 -0.28125q-0.28125 -0.28125 -0.28125 -0.671875q0 -0.375 0.28125 -0.65625q0.28125 -0.28125 0.6875 -0.28125q0.40625 0 0.6875 0.28125q0.28125763 0.265625 0.28125763 0.640625q0 0.40625 -0.28125763 0.6875q-0.28125 0.28125 -0.6875 0.28125zm11.268547 10.859377l0 1.09375l-7.984375 0l0 -0.875l6.171875 -7.812502l-6.0625 0l0 -1.125l7.765625 0l0 0.875l-6.171875 7.843752l6.28125 0zm2.6114655 -8.718752l1.328125 0l0 9.812502l-1.328125 0l0 -9.812502zm0.671875 -2.140625q-0.40625 0 -0.6875 -0.28125q-0.28125 -0.28125 -0.28125 -0.671875q0 -0.375 0.28125 -0.65625q0.28125 -0.28125 0.6875 -0.28125q0.40625 0 0.6875 0.28125q0.28125 0.265625 0.28125 0.640625q0 0.40625 -0.28125 0.6875q-0.28125 0.28125 -0.6875 0.28125zm9.346664 2.0625q1.84375 0 2.9375 1.078125q1.09375 1.0625 1.09375 3.125l0 5.687502l-1.328125 0l0 -5.562502q0 -1.53125 -0.765625 -2.328125q-0.765625 -0.796875 -2.171875 -0.796875q-1.59375 0 -2.515625 0.9375q-0.921875 0.9375 -0.921875 2.59375l0 5.156252l-1.328125 0l0 -9.812502l1.265625 0l0 1.8125q0.546875 -0.90625 1.5 -1.390625q0.96875 -0.5 2.234375 -0.5zm16.72403 0.078125l0 8.625002q0 2.5 -1.234375 3.703125q-1.21875 1.203125 -3.671875 1.203125q-1.359375 0 -2.59375 -0.40625q-1.21875 -0.40625 -1.984375 -1.109375l0.671875 -1.015625q0.703125 0.640625 1.71875 0.984375q1.03125 0.359375 2.140625 0.359375q1.875 0 2.75 -0.875q0.875 -0.859375 0.875 -2.6875l0 -1.25q-0.609375 0.9375 -1.609375 1.421875q-1.0 0.484375 -2.21875 0.484375q-1.375 0 -2.515625 -0.59375q-1.125 -0.609375 -1.765625 -1.703125q-0.640625 -1.0937519 -0.640625 -2.484377q0 -1.375 0.640625 -2.453125q0.640625 -1.078125 1.765625 -1.671875q1.125 -0.609375 2.515625 -0.609375q1.25 0 2.25 0.515625q1.015625 0.5 1.625 1.453125l0 -1.890625l1.28125 0zm-5.03125 8.265627q1.078125 0 1.921875 -0.453125q0.859375 -0.46875 1.328125 -1.28125q0.484375 -0.8281269 0.484375 -1.8750019q0 -1.03125 -0.484375 -1.84375q-0.46875 -0.8125 -1.3125 -1.265625q-0.84375 -0.46875 -1.9375 -0.46875q-1.0625 0 -1.90625 0.453125q-0.84375 0.453125 -1.328125 1.28125q-0.46875 0.8125 -0.46875 1.84375q0 1.046875 0.46875 1.8750019q0.484375 0.8125 1.328125 1.28125q0.84375 0.453125 1.90625 0.453125zm21.873627 -8.265627l-4.359375 9.812502l-1.375 0l-4.34375 -9.812502l1.390625 0l3.671875 8.359377l3.703125 -8.359377l1.3125 0zm5.2991943 -0.078125q1.921875 0 2.9375 0.96875q1.03125 0.953125 1.03125 2.84375l0 6.078127l-1.265625 0l0 -1.53125q-0.453125 0.765625 -1.328125 1.203125q-0.859375 0.421875 -2.046875 0.421875q-1.640625 0 -2.609375 -0.78125q-0.96875 -0.78125 -0.96875 -2.078125q0 -1.2500019 0.890625 -2.015627q0.90625 -0.765625 2.890625 -0.765625l3.109375 0l0 -0.59375q0 -1.265625 -0.703125 -1.921875q-0.703125 -0.671875 -2.0625 -0.671875q-0.9375 0 -1.796875 0.3125q-0.859375 0.3125 -1.46875 0.84375l-0.609375 -0.984375q0.75 -0.640625 1.796875 -0.984375q1.046875 -0.34375 2.203125 -0.34375zm-0.46875 8.937502q1.125 0 1.921875 -0.515625q0.796875 -0.515625 1.1875 -1.484375l0 -1.5937519l-3.078125 0q-2.515625 0 -2.515625 1.7500019q0 0.859375 0.65625 1.359375q0.65625 0.484375 1.828125 0.484375zm9.304047 -6.937502q0.46875 -0.984375 1.390625 -1.484375q0.921875 -0.515625 2.296875 -0.515625l0 1.296875l-0.328125 -0.03125q-1.546875 0 -2.421875 0.953125q-0.875 0.953125 -0.875 2.671875l0 5.000002l-1.328125 0l0 -9.812502l1.265625 0l0 1.921875zm6.2155457 -1.921875l1.328125 0l0 9.812502l-1.328125 0l0 -9.812502zm0.671875 -2.140625q-0.40625 0 -0.6875 -0.28125q-0.28125 -0.28125 -0.28125 -0.671875q0 -0.375 0.28125 -0.65625q0.28125 -0.28125 0.6875 -0.28125q0.40625 0 0.6875 0.28125q0.28125 0.265625 0.28125 0.640625q0 0.40625 -0.28125 0.6875q-0.28125 0.28125 -0.6875 0.28125zm7.784149 2.0625q1.921875 0 2.9375 0.96875q1.03125 0.953125 1.03125 2.84375l0 6.078127l-1.265625 0l0 -1.53125q-0.453125 0.765625 -1.328125 1.203125q-0.859375 0.421875 -2.046875 0.421875q-1.640625 0 -2.609375 -0.78125q-0.96875 -0.78125 -0.96875 -2.078125q0 -1.2500019 0.890625 -2.015627q0.90625 -0.765625 2.890625 -0.765625l3.109375 0l0 -0.59375q0 -1.265625 -0.703125 -1.921875q-0.703125 -0.671875 -2.0625 -0.671875q-0.9375 0 -1.796875 0.3125q-0.859375 0.3125 -1.46875 0.84375l-0.609375 -0.984375q0.75 -0.640625 1.796875 -0.984375q1.046875 -0.34375 2.203125 -0.34375zm-0.46875 8.937502q1.125 0 1.921875 -0.515625q0.796875 -0.515625 1.1875 -1.484375l0 -1.5937519l-3.078125 0q-2.515625 0 -2.515625 1.7500019q0 0.859375 0.65625 1.359375q0.65625 0.484375 1.828125 0.484375zm13.038452 -8.937502q1.84375 0 2.9375 1.078125q1.09375 1.0625 1.09375 3.125l0 5.687502l-1.328125 0l0 -5.562502q0 -1.53125 -0.765625 -2.328125q-0.765625 -0.796875 -2.171875 -0.796875q-1.59375 0 -2.515625 0.9375q-0.921875 0.9375 -0.921875 2.59375l0 5.156252l-1.328125 0l0 -9.812502l1.265625 0l0 1.8125q0.546875 -0.90625 1.5 -1.390625q0.96875 -0.5 2.234375 -0.5zm11.69278 9.984377q-1.453125 0 -2.59375 -0.625q-1.140625 -0.640625 -1.796875 -1.78125q-0.65625 -1.15625 -0.65625 -2.593752q0 -1.4375 0.65625 -2.578125q0.65625 -1.140625 1.796875 -1.765625q1.140625 -0.640625 2.59375 -0.640625q1.28125 0 2.265625 0.5q1.0 0.484375 1.578125 1.4375l-0.984375 0.671875q-0.484375 -0.71875 -1.234375 -1.078125q-0.734375 -0.375 -1.625 -0.375q-1.0625 0 -1.90625 0.484375q-0.84375 0.46875 -1.328125 1.34375q-0.46875 0.875 -0.46875 2.0q0 1.140625 0.46875 2.015627q0.484375 0.859375 1.328125 1.34375q0.84375 0.46875 1.90625 0.46875q0.890625 0 1.625 -0.359375q0.75 -0.359375 1.234375 -1.078125l0.984375 0.671875q-0.578125 0.953125 -1.59375 1.453125q-1.0 0.484375 -2.25 0.484375zm14.9878235 -4.593752l-8.203125 0q0.109375 1.5312519 1.171875 2.484377q1.0625 0.9375 2.6875 0.9375q0.90625 0 1.671875 -0.328125q0.765625 -0.328125 1.328125 -0.96875l0.75 0.859375q-0.65625 0.78125 -1.640625 1.203125q-0.96875 0.40625 -2.15625 0.40625q-1.5 0 -2.671875 -0.640625q-1.15625 -0.640625 -1.8125 -1.78125q-0.65625 -1.140625 -0.65625 -2.578127q0 -1.4375 0.625 -2.578125q0.625 -1.140625 1.71875 -1.765625q1.09375 -0.640625 2.453125 -0.640625q1.359375 0 2.4375 0.640625q1.078125 0.625 1.6875 1.765625q0.625 1.125 0.625 2.578125l-0.015625 0.40625zm-4.734375 -4.25q-1.421875 0 -2.390625 0.90625q-0.953125 0.90625 -1.078125 2.359375l6.953125 0q-0.125 -1.453125 -1.09375 -2.359375q-0.953125 -0.90625 -2.390625 -0.90625z" fill-rule="nonzero"/><path fill="#000000" fill-opacity="0.0" d="m357.3701 5.1706038l261.25986 0l0 47.212597l-261.25986 0z" fill-rule="evenodd"/><path fill="#000000" d="m451.04886 11.6344l0 13.062499l-1.328125 0l0 -10.453124l-5.125 8.796874l-0.65625 0l-5.125 -8.734374l0 10.390624l-1.328125 0l0 -13.062499l1.140625 0l5.671875 9.687499l5.609375 -9.687499l1.140625 0zm3.972992 3.25l1.328125 0l0 9.812499l-1.328125 0l0 -9.812499zm0.671875 -2.140625q-0.40625 0 -0.6875 -0.28125q-0.28125 -0.28125 -0.28125 -0.671875q0 -0.375 0.28125 -0.65625q0.28125 -0.28125 0.6875 -0.28125q0.40625 0 0.6875 0.28125q0.28125 0.265625 0.28125 0.640625q0 0.40625 -0.28125 0.6875q-0.28125 0.28125 -0.6875 0.28125zm9.346649 2.0625q1.84375 0 2.9375 1.078125q1.09375 1.062499 1.09375 3.124999l0 5.6875l-1.328125 0l0 -5.5625q0 -1.53125 -0.765625 -2.328125q-0.765625 -0.796875 -2.171875 -0.796875q-1.59375 0 -2.515625 0.9375q-0.921875 0.9375 -0.921875 2.59375l0 5.15625l-1.328125 0l0 -9.812499l1.265625 0l0 1.812499q0.546875 -0.90624905 1.5 -1.390624q0.96875 -0.5 2.234375 -0.5zm7.6302795 0.078125l1.328125 0l0 9.812499l-1.328125 0l0 -9.812499zm0.671875 -2.140625q-0.40625 0 -0.6875 -0.28125q-0.28125 -0.28125 -0.28125 -0.671875q0 -0.375 0.28125 -0.65625q0.28125 -0.28125 0.6875 -0.28125q0.40625 0 0.6875 0.28125q0.28125 0.265625 0.28125 0.640625q0 0.40625 -0.28125 0.6875q-0.28125 0.28125 -0.6875 0.28125zm16.581055 2.0625q1.859375 0 2.90625 1.0625q1.0625 1.062499 1.0625 3.140624l0 5.6875l-1.328125 0l0 -5.5625q0 -1.53125 -0.75 -2.328125q-0.734375 -0.796875 -2.0625 -0.796875q-1.53125 0 -2.421875 0.9375q-0.875 0.9375 -0.875 2.59375l0 5.15625l-1.3125 0l0 -5.5625q0 -1.53125 -0.75 -2.328125q-0.734375 -0.796875 -2.09375 -0.796875q-1.515625 0 -2.40625 0.9375q-0.875 0.9375 -0.875 2.59375l0 5.15625l-1.328125 0l0 -9.812499l1.265625 0l0 1.796874q0.53125 -0.90624905 1.453125 -1.390624q0.9375 -0.484375 2.15625 -0.484375q1.234375 0 2.125 0.53125q0.90625 0.515625 1.359375 1.546874q0.546875 -0.96874905 1.5625 -1.515624q1.015625 -0.5625 2.3125 -0.5625zm7.559906 0.078125l1.328125 0l0 9.812499l-1.328125 0l0 -9.812499zm0.671875 -2.140625q-0.40625 0 -0.6875 -0.28125q-0.28125 -0.28125 -0.28125 -0.671875q0 -0.375 0.28125 -0.65625q0.28125 -0.28125 0.6875 -0.28125q0.40625 0 0.6875 0.28125q0.28125 0.265625 0.28125 0.640625q0 0.40625 -0.28125 0.6875q-0.28125 0.28125 -0.6875 0.28125zm11.268555 10.859374l0 1.09375l-7.984375 0l0 -0.875l6.171875 -7.8125l-6.0625 0l0 -1.124999l7.765625 0l0 0.875l-6.171875 7.843749l6.28125 0zm2.6114197 -8.718749l1.328125 0l0 9.812499l-1.328125 0l0 -9.812499zm0.671875 -2.140625q-0.40625 0 -0.6875 -0.28125q-0.28121948 -0.28125 -0.28121948 -0.671875q0 -0.375 0.28121948 -0.65625q0.28125 -0.28125 0.6875 -0.28125q0.40625 0 0.6875 0.28125q0.28125 0.265625 0.28125 0.640625q0 0.40625 -0.28125 0.6875q-0.28125 0.28125 -0.6875 0.28125zm9.34668 2.0625q1.84375 0 2.9375 1.078125q1.09375 1.062499 1.09375 3.124999l0 5.6875l-1.328125 0l0 -5.5625q0 -1.53125 -0.765625 -2.328125q-0.765625 -0.796875 -2.171875 -0.796875q-1.59375 0 -2.515625 0.9375q-0.921875 0.9375 -0.921875 2.59375l0 5.15625l-1.328125 0l0 -9.812499l1.265625 0l0 1.812499q0.546875 -0.90624905 1.5 -1.390624q0.96875 -0.5 2.234375 -0.5zm16.72406 0.078125l0 8.624999q0 2.5 -1.234375 3.703125q-1.21875 1.203125 -3.671875 1.203125q-1.359375 0 -2.59375 -0.40625q-1.21875 -0.40625 -1.984375 -1.109375l0.671875 -1.015625q0.703125 0.640625 1.71875 0.984375q1.03125 0.359375 2.140625 0.359375q1.875 0 2.75 -0.875q0.875 -0.859375 0.875 -2.6875l0 -1.25q-0.609375 0.9375 -1.609375 1.421875q-1.0 0.484375 -2.21875 0.484375q-1.375 0 -2.515625 -0.59375q-1.125 -0.609375 -1.765625 -1.703125q-0.640625 -1.09375 -0.640625 -2.484375q0 -1.375 0.640625 -2.453125q0.640625 -1.078125 1.765625 -1.671874q1.125 -0.609375 2.515625 -0.609375q1.25 0 2.25 0.515625q1.015625 0.5 1.625 1.453124l0 -1.890624l1.28125 0zm-5.03125 8.265624q1.078125 0 1.921875 -0.453125q0.859375 -0.46875 1.328125 -1.28125q0.484375 -0.828125 0.484375 -1.875q0 -1.03125 -0.484375 -1.84375q-0.46875 -0.8125 -1.3125 -1.265625q-0.84375 -0.46874905 -1.9375 -0.46874905q-1.0625 0 -1.90625 0.45312405q-0.84375 0.453125 -1.328125 1.28125q-0.46875 0.8125 -0.46875 1.84375q0 1.046875 0.46875 1.875q0.484375 0.8125 1.328125 1.28125q0.84375 0.453125 1.90625 0.453125z" fill-rule="nonzero"/><path fill="#000000" d="m397.09122 38.80628q0.46875 -0.984375 1.390625 -1.484375q0.921875 -0.515625 2.296875 -0.515625l0 1.296875l-0.328125 -0.03125q-1.546875 0 -2.421875 0.953125q-0.875 0.953125 -0.875 2.671875l0 5.0l-1.328125 0l0 -9.8125l1.265625 0l0 1.921875zm14.76239 3.390625l-8.203125 0q0.109375 1.53125 1.171875 2.484375q1.0625 0.9375 2.6875 0.9375q0.90625 0 1.671875 -0.328125q0.765625 -0.328125 1.328125 -0.96875l0.75 0.859375q-0.65625 0.78125 -1.640625 1.203125q-0.96875 0.40625 -2.15625 0.40625q-1.5 0 -2.671875 -0.640625q-1.15625 -0.640625 -1.8125 -1.78125q-0.65625 -1.140625 -0.65625 -2.578125q0 -1.4375 0.625 -2.578125q0.625 -1.140625 1.71875 -1.765625q1.09375 -0.640625 2.453125 -0.640625q1.359375 0 2.4375 0.640625q1.078125 0.625 1.6875 1.765625q0.625 1.125 0.625 2.578125l-0.015625 0.40625zm-4.734375 -4.25q-1.421875 0 -2.390625 0.90625q-0.953125 0.90625 -1.078125 2.359375l6.953125 0q-0.125 -1.453125 -1.09375 -2.359375q-0.953125 -0.90625 -2.390625 -0.90625zm11.518372 8.84375q-1.453125 0 -2.59375 -0.625q-1.140625 -0.640625 -1.796875 -1.78125q-0.65625 -1.15625 -0.65625 -2.59375q0 -1.4375 0.65625 -2.578125q0.65625 -1.140625 1.796875 -1.765625q1.140625 -0.640625 2.59375 -0.640625q1.28125 0 2.265625 0.5q1.0 0.484375 1.578125 1.4375l-0.984375 0.671875q-0.484375 -0.71875 -1.234375 -1.078125q-0.734375 -0.375 -1.625 -0.375q-1.0625 0 -1.90625 0.484375q-0.84375 0.46875 -1.328125 1.34375q-0.46875 0.875 -0.46875 2.0q0 1.140625 0.46875 2.015625q0.484375 0.859375 1.328125 1.34375q0.84375 0.46875 1.90625 0.46875q0.890625 0 1.625 -0.359375q0.75 -0.359375 1.234375 -1.078125l0.984375 0.671875q-0.578125 0.953125 -1.59375 1.453125q-1.0 0.484375 -2.25 0.484375zm10.456604 0q-1.421875 0 -2.5625 -0.640625q-1.125 -0.640625 -1.78125 -1.78125q-0.65625 -1.140625 -0.65625 -2.578125q0 -1.4375 0.65625 -2.578125q0.65625 -1.140625 1.78125 -1.765625q1.140625 -0.640625 2.5625 -0.640625q1.421875 0 2.546875 0.640625q1.140625 0.625 1.78125 1.765625q0.65625 1.140625 0.65625 2.578125q0 1.4375 -0.65625 2.578125q-0.640625 1.140625 -1.78125 1.78125q-1.125 0.640625 -2.546875 0.640625zm0 -1.171875q1.046875 0 1.875 -0.46875q0.828125 -0.484375 1.296875 -1.359375q0.46875 -0.875 0.46875 -2.0q0 -1.125 -0.46875 -2.0q-0.46875 -0.875 -1.296875 -1.34375q-0.828125 -0.484375 -1.875 -0.484375q-1.046875 0 -1.875 0.484375q-0.828125 0.46875 -1.3125 1.34375q-0.46875 0.875 -0.46875 2.0q0 1.125 0.46875 2.0q0.484375 0.875 1.3125 1.359375q0.828125 0.46875 1.875 0.46875zm12.681824 -8.8125q1.84375 0 2.9375 1.078125q1.09375 1.0625 1.09375 3.125l0 5.6875l-1.328125 0l0 -5.5625q0 -1.53125 -0.765625 -2.328125q-0.765625 -0.796875 -2.171875 -0.796875q-1.59375 0 -2.515625 0.9375q-0.921875 0.9375 -0.921875 2.59375l0 5.15625l-1.328125 0l0 -9.8125l1.265625 0l0 1.8125q0.546875 -0.90625 1.5 -1.390625q0.96875 -0.5 2.234375 -0.5zm10.270905 9.984375q-1.203125 0 -2.296875 -0.34375q-1.09375 -0.34375 -1.703125 -0.875l0.59375 -1.046875q0.625 0.5 1.546875 0.8125q0.9375 0.296875 1.953125 0.296875q1.328125 0 1.96875 -0.421875q0.65625 -0.421875 0.65625 -1.1875q0 -0.53125 -0.359375 -0.84375q-0.34375 -0.3125 -0.890625 -0.46875q-0.546875 -0.15625 -1.4375 -0.3125q-1.1875 -0.21875 -1.921875 -0.453125q-0.734375 -0.234375 -1.25 -0.78125q-0.5 -0.5625 -0.5 -1.5625q0 -1.234375 1.015625 -2.015625q1.03125 -0.78125 2.859375 -0.78125q0.953125 0 1.90625 0.25q0.953125 0.25 1.5625 0.671875l-0.578125 1.0625q-1.203125 -0.84375 -2.890625 -0.84375q-1.265625 0 -1.90625 0.453125q-0.640625 0.4375 -0.640625 1.171875q0 0.5625 0.359375 0.90625q0.359375 0.328125 0.890625 0.484375q0.546875 0.15625 1.5 0.328125q1.171875 0.21875 1.875 0.453125q0.71875 0.21875 1.21875 0.765625q0.515625 0.53125 0.515625 1.484375q0 1.28125 -1.078125 2.046875q-1.078125 0.75 -2.96875 0.75zm11.654175 -0.6875q-0.375 0.328125 -0.921875 0.515625q-0.546875 0.171875 -1.15625 0.171875q-1.375 0 -2.125 -0.75q-0.734375 -0.75 -0.734375 -2.109375l0 -5.921875l-1.765625 0l0 -1.125l1.765625 0l0 -2.140625l1.3125 0l0 2.140625l2.984375 0l0 1.125l-2.984375 0l0 5.859375q0 0.875 0.4375 1.328125q0.4375 0.453125 1.265625 0.453125q0.40625 0 0.78125 -0.125q0.390625 -0.140625 0.671875 -0.375l0.46875 0.953125zm3.6681824 -7.296875q0.46875 -0.984375 1.390625 -1.484375q0.921875 -0.515625 2.296875 -0.515625l0 1.296875l-0.328125 -0.03125q-1.546875 0 -2.421875 0.953125q-0.875 0.953125 -0.875 2.671875l0 5.0l-1.328125 0l0 -9.8125l1.265625 0l0 1.921875zm15.059265 -1.921875l0 9.8125l-1.265625 0l0 -1.796875q-0.515625 0.90625 -1.4375 1.40625q-0.90625 0.484375 -2.09375 0.484375q-1.921875 0 -3.03125 -1.0625q-1.109375 -1.078125 -1.109375 -3.15625l0 -5.6875l1.328125 0l0 5.5625q0 1.546875 0.765625 2.359375q0.765625 0.796875 2.1875 0.796875q1.546875 0 2.4375 -0.9375q0.890625 -0.953125 0.890625 -2.640625l0 -5.140625l1.328125 0zm7.7744446 9.90625q-1.453125 0 -2.59375 -0.625q-1.140625 -0.640625 -1.796875 -1.78125q-0.6562805 -1.15625 -0.6562805 -2.59375q0 -1.4375 0.6562805 -2.578125q0.65625 -1.140625 1.796875 -1.765625q1.140625 -0.640625 2.59375 -0.640625q1.28125 0 2.265625 0.5q1.0 0.484375 1.578125 1.4375l-0.984375 0.671875q-0.484375 -0.71875 -1.234375 -1.078125q-0.734375 -0.375 -1.625 -0.375q-1.0625 0 -1.90625 0.484375q-0.84375 0.46875 -1.328125 1.34375q-0.46875 0.875 -0.46875 2.0q0 1.140625 0.46875 2.015625q0.484375 0.859375 1.328125 1.34375q0.84375 0.46875 1.90625 0.46875q0.890625 0 1.625 -0.359375q0.75 -0.359375 1.234375 -1.078125l0.984375 0.671875q-0.578125 0.953125 -1.59375 1.453125q-1.0 0.484375 -2.25 0.484375zm11.6128235 -0.6875q-0.375 0.328125 -0.921875 0.515625q-0.546875 0.171875 -1.15625 0.171875q-1.375 0 -2.125 -0.75q-0.734375 -0.75 -0.734375 -2.109375l0 -5.921875l-1.765625 0l0 -1.125l1.765625 0l0 -2.140625l1.3125 0l0 2.140625l2.984375 0l0 1.125l-2.984375 0l0 5.859375q0 0.875 0.4375 1.328125q0.4375 0.453125 1.265625 0.453125q0.40625 0 0.78125 -0.125q0.390625 -0.140625 0.671875 -0.375l0.46875 0.953125zm2.4025574 -9.21875l1.328125 0l0 9.8125l-1.328125 0l0 -9.8125zm0.671875 -2.140625q-0.40625 0 -0.6875 -0.28125q-0.28125 -0.28125 -0.28125 -0.671875q0 -0.375 0.28125 -0.65625q0.28125 -0.28125 0.6875 -0.28125q0.40625 0 0.6875 0.28125q0.28125 0.265625 0.28125 0.640625q0 0.40625 -0.28125 0.6875q-0.28125 0.28125 -0.6875 0.28125zm8.362305 12.046875q-1.421875 0 -2.5625 -0.640625q-1.125 -0.640625 -1.78125 -1.78125q-0.65625 -1.140625 -0.65625 -2.578125q0 -1.4375 0.65625 -2.578125q0.65625 -1.140625 1.78125 -1.765625q1.140625 -0.640625 2.5625 -0.640625q1.421875 0 2.546875 0.640625q1.140625 0.625 1.78125 1.765625q0.65625 1.140625 0.65625 2.578125q0 1.4375 -0.65625 2.578125q-0.640625 1.140625 -1.78125 1.78125q-1.125 0.640625 -2.546875 0.640625zm0 -1.171875q1.046875 0 1.875 -0.46875q0.828125 -0.484375 1.296875 -1.359375q0.46875 -0.875 0.46875 -2.0q0 -1.125 -0.46875 -2.0q-0.46875 -0.875 -1.296875 -1.34375q-0.828125 -0.484375 -1.875 -0.484375q-1.046875 0 -1.875 0.484375q-0.828125 0.46875 -1.3125 1.34375q-0.46875 0.875 -0.46875 2.0q0 1.125 0.46875 2.0q0.484375 0.875 1.3125 1.359375q0.828125 0.46875 1.875 0.46875zm12.681824 -8.8125q1.84375 0 2.9375 1.078125q1.09375 1.0625 1.09375 3.125l0 5.6875l-1.328125 0l0 -5.5625q0 -1.53125 -0.765625 -2.328125q-0.765625 -0.796875 -2.171875 -0.796875q-1.59375 0 -2.515625 0.9375q-0.921875 0.9375 -0.921875 2.59375l0 5.15625l-1.328125 0l0 -9.8125l1.265625 0l0 1.8125q0.546875 -0.90625 1.5 -1.390625q0.96875 -0.5 2.234375 -0.5zm21.065063 5.390625l-8.203125 0q0.109375 1.53125 1.171875 2.484375q1.0625 0.9375 2.6875 0.9375q0.90625 0 1.671875 -0.328125q0.765625 -0.328125 1.328125 -0.96875l0.75 0.859375q-0.65625 0.78125 -1.640625 1.203125q-0.96875 0.40625 -2.15625 0.40625q-1.5 0 -2.671875 -0.640625q-1.15625 -0.640625 -1.8125 -1.78125q-0.65625 -1.140625 -0.65625 -2.578125q0 -1.4375 0.625 -2.578125q0.625 -1.140625 1.71875 -1.765625q1.09375 -0.640625 2.453125 -0.640625q1.359375 0 2.4375 0.640625q1.078125 0.625 1.6875 1.765625q0.625 1.125 0.625 2.578125l-0.015625 0.40625zm-4.734375 -4.25q-1.421875 0 -2.390625 0.90625q-0.953125 0.90625 -1.078125 2.359375l6.953125 0q-0.125 -1.453125 -1.09375 -2.359375q-0.953125 -0.90625 -2.390625 -0.90625zm8.721497 0.859375q0.46875 -0.984375 1.390625 -1.484375q0.921875 -0.515625 2.296875 -0.515625l0 1.296875l-0.328125 -0.03125q-1.546875 0 -2.421875 0.953125q-0.875 0.953125 -0.875 2.671875l0 5.0l-1.328125 0l0 -9.8125l1.265625 0l0 1.921875zm7.481201 0q0.46875 -0.984375 1.390625 -1.484375q0.921875 -0.515625 2.296875 -0.515625l0 1.296875l-0.328125 -0.03125q-1.546875 0 -2.421875 0.953125q-0.875 0.953125 -0.875 2.671875l0 5.0l-1.328125 0l0 -9.8125l1.265625 0l0 1.921875zm10.23114 7.984375q-1.421875 0 -2.5625 -0.640625q-1.125 -0.640625 -1.78125 -1.78125q-0.65625 -1.140625 -0.65625 -2.578125q0 -1.4375 0.65625 -2.578125q0.65625 -1.140625 1.78125 -1.765625q1.140625 -0.640625 2.5625 -0.640625q1.421875 0 2.546875 0.640625q1.140625 0.625 1.78125 1.765625q0.65625 1.140625 0.65625 2.578125q0 1.4375 -0.65625 2.578125q-0.640625 1.140625 -1.78125 1.78125q-1.125 0.640625 -2.546875 0.640625zm0 -1.171875q1.046875 0 1.875 -0.46875q0.828125 -0.484375 1.296875 -1.359375q0.46875 -0.875 0.46875 -2.0q0 -1.125 -0.46875 -2.0q-0.46875 -0.875 -1.296875 -1.34375q-0.828125 -0.484375 -1.875 -0.484375q-1.046875 0 -1.875 0.484375q-0.828125 0.46875 -1.3125 1.34375q-0.46875 0.875 -0.46875 2.0q0 1.125 0.46875 2.0q0.484375 0.875 1.3125 1.359375q0.828125 0.46875 1.875 0.46875zm8.947449 -6.8125q0.46875 -0.984375 1.390625 -1.484375q0.921875 -0.515625 2.296875 -0.515625l0 1.296875l-0.328125 -0.03125q-1.546875 0 -2.421875 0.953125q-0.875 0.953125 -0.875 2.671875l0 5.0l-1.328125 0l0 -9.8125l1.265625 0l0 1.921875z" fill-rule="nonzero"/><path fill="#000000" fill-opacity="0.0" d="m656.17773 343.91885l74.456726 -67.62204l17.29132 19.02362l-74.456665 67.62204z" fill-rule="evenodd"/><path fill="#000000" d="m692.4243 336.38495q-0.90216064 0.819397 -1.9987183 1.0765076q-1.095459 0.2350769 -2.1634521 -0.103637695q-1.0679932 -0.33868408 -1.8982544 -1.2521057q-0.83026123 -0.91345215 -1.0654297 -2.008484q-0.24572754 -1.1066284 0.10357666 -2.1625977q0.36083984 -1.0664978 1.2630615 -1.8858948q0.890625 -0.8088684 1.9755859 -1.055481q1.0965576 -0.2571411 2.1635132 0.103637695q1.0679932 0.33868408 1.8981934 1.2521057q0.83026123 0.91345215 1.0654907 2.008484q0.24676514 1.0845642 -0.103637695 2.1625977q-0.34924316 1.0559998 -1.2399292 1.8648682zm-0.6726074 -0.73999023q0.65930176 -0.5987854 0.9065552 -1.3721313q0.24835205 -0.79541016 0.03302002 -1.6130066q-0.20373535 -0.828125 -0.8447876 -1.5334473q-0.6516113 -0.7168579 -1.4567871 -0.9987488q-0.79364014 -0.2923584 -1.598938 -0.10977173q-0.7937622 0.17211914 -1.453064 0.770874q-0.6708374 0.60931396 -0.9296875 1.393158q-0.24725342 0.77334595 -0.043518066 1.601471q0.20373535 0.828125 0.8553467 1.5449829q0.64105225 0.70532227 1.446228 0.9871826q0.8052368 0.28186035 1.6094971 0.12133789q0.80529785 -0.18261719 1.4761353 -0.79190063zm1.7492676 -9.482758q-0.26678467 -0.897522 0.01727295 -1.7464905q0.29559326 -0.8594971 1.1630859 -1.6473694l0.7462158 0.82092285l-0.21875 0.17752075q-0.9831543 0.8929138 -0.9918213 1.9984131q-0.008728027 1.1054688 0.98968506 2.2039185l2.8796387 3.1680908l-0.84436035 0.7668457l-5.664673 -6.232147l0.8096924 -0.73532104l1.1140137 1.2256165zm2.8258667 -4.8038635l0.84436035 -0.7668457l5.664612 6.232147l-0.84436035 0.7668457l-5.664612 -6.232147zm-0.8016968 -1.7414856q-0.2659912 0.24160767 -0.59716797 0.22573853q-0.34161377 -0.027404785 -0.57281494 -0.28179932q-0.21020508 -0.23123169 -0.19433594 -0.56225586q0.0053100586 -0.3425598 0.2713623 -0.5841675q0.25445557 -0.23110962 0.5855713 -0.21524048q0.3427124 0.005340576 0.5529175 0.23660278q0.24176025 0.26593018 0.22479248 0.61898804q-0.015808105 0.33102417 -0.2703247 0.5621338zm9.7595825 -6.394104l4.9710083 5.4690247q1.4503174 1.5956116 1.3689575 3.062561q-0.08129883 1.4669495 -1.6428223 2.8851013q-0.8674927 0.7878723 -1.8736572 1.2373352q-1.0061646 0.4494629 -1.9018555 0.43972778l-0.15008545 -1.0246277q0.8084717 -0.016571045 1.6442871 -0.3746338q0.85791016 -0.35702515 1.5750732 -1.0083313q1.1798096 -1.0715027 1.2305298 -2.1307373q0.06121826 -1.0476685 -0.98968506 -2.2039185l-0.7251587 -0.79782104q0.15423584 0.93637085 -0.19812012 1.8263245q-0.352417 0.8899536 -1.1273804 1.5937805q-0.8674927 0.7878723 -1.9314575 1.0576172q-1.0744629 0.2581787 -2.12146 -0.057403564q-1.0354004 -0.32608032 -1.8341064 -1.2048035q-0.788208 -0.8671875 -1.003479 -1.9170532q-0.21417236 -1.0719299 0.14459229 -2.0942688q0.3703003 -1.0328674 1.2493896 -1.8312378q0.7980957 -0.7248535 1.7285156 -0.97888184q0.9420166 -0.26452637 1.8702393 -0.009918213l-1.0930176 -1.2025146l0.8096924 -0.73532104zm1.5904541 8.138184q0.67089844 -0.60928345 0.9517822 -1.3920898q0.2808838 -0.7827759 0.10870361 -1.5762024q-0.17218018 -0.79345703 -0.7817383 -1.4640808q-0.59906006 -0.6590576 -1.3621826 -0.89468384q-0.77368164 -0.24716187 -1.5800781 -0.042510986q-0.7947998 0.19418335 -1.4772339 0.81396484q-0.6824341 0.6197815 -0.9633179 1.4025879q-0.2798462 0.76071167 -0.107666016 1.5541687q0.17224121 0.7934265 0.77124023 1.4524841q0.6095581 0.6706238 1.3832397 0.91781616q0.77368164 0.24716187 1.5684814 0.053009033q0.8063965 -0.2046814 1.4887695 -0.8244629zm0.76293945 -10.275574l0.84436035 -0.7668762l5.664673 6.232147l-0.84436035 0.7668762l-5.664673 -6.232147zm-0.80163574 -1.7414856q-0.26605225 0.24160767 -0.59716797 0.22573853q-0.3416748 -0.027435303 -0.572876 -0.28179932q-0.21020508 -0.2312622 -0.19433594 -0.56225586q0.0053100586 -0.34259033 0.2713623 -0.584198q0.25445557 -0.23110962 0.5856323 -0.21524048q0.3427124 0.0053710938 0.55285645 0.23660278q0.24176025 0.26593018 0.22485352 0.61901855q-0.01586914 0.33102417 -0.2703247 0.5621338zm7.126526 -4.0872803q1.1682739 -1.0610046 2.4822998 -1.0090942q1.3140869 0.051879883 2.501648 1.358429l3.2789917 3.607483l-0.84436035 0.7668457l-3.2054443 -3.5265198q-0.88275146 -0.97125244 -1.8309937 -1.0387878q-0.9482422 -0.0675354 -1.8504028 0.75183105q-1.0063477 0.9139404 -1.0497437 2.0509338q-0.042297363 1.1149292 0.9140625 2.1671143l2.9741821 3.2721558l-0.84436035 0.7668457l-5.664673 -6.232147l0.8096924 -0.73532104l1.0509644 1.1562195q-0.16796875 -0.88168335 0.14971924 -1.7401428q0.31878662 -0.88049316 1.128418 -1.6158447z" fill-rule="nonzero"/></g></svg>